<svg width="304" height="32" viewBox="0 0 304 32" fill="none" xmlns="http://www.w3.org/2000/svg">
<path d="M0.201705 31V1.90909H20.0597V7.61932H7.23295V13.5852H18.7955V19.3097H7.23295V31H0.201705ZM23.6001 31V9.18182H30.5462V31H23.6001ZM27.0803 6.6392C26.1049 6.6392 25.2668 6.31723 24.5661 5.6733C23.8653 5.01989 23.5149 4.2339 23.5149 3.31534C23.5149 2.40625 23.8653 1.62973 24.5661 0.985795C25.2668 0.332385 26.1049 0.00568008 27.0803 0.00568008C28.0651 0.00568008 28.9032 0.332385 29.5945 0.985795C30.2952 1.62973 30.6456 2.40625 30.6456 3.31534C30.6456 4.2339 30.2952 5.01989 29.5945 5.6733C28.9032 6.31723 28.0651 6.6392 27.0803 6.6392ZM47.2827 9.18182V14.2955H33.5185V9.18182H47.2827ZM36.402 3.95455H43.348V24.1392C43.348 24.5653 43.4143 24.911 43.5469 25.1761C43.6889 25.4318 43.8925 25.6165 44.1577 25.7301C44.4228 25.8343 44.7401 25.8864 45.1094 25.8864C45.3745 25.8864 45.6539 25.8627 45.9474 25.8153C46.2505 25.7585 46.4777 25.7112 46.6293 25.6733L47.6804 30.6875C47.349 30.7822 46.8802 30.9006 46.2741 31.0426C45.6776 31.1847 44.9626 31.2746 44.1293 31.3125C42.5005 31.3883 41.1037 31.1989 39.9389 30.7443C38.7836 30.2803 37.8982 29.5606 37.2827 28.5852C36.6766 27.6098 36.383 26.3835 36.402 24.9062V3.95455ZM57.7727 18.5568V31H50.8267V9.18182H57.4318V13.1875H57.6733C58.1563 11.8523 58.9801 10.8059 60.1449 10.0483C61.3097 9.28125 62.697 8.89773 64.3068 8.89773C65.8409 8.89773 67.1714 9.24337 68.2983 9.93466C69.4347 10.6165 70.3153 11.5729 70.9403 12.804C71.5748 14.0256 71.8873 15.4555 71.8778 17.0938V31H64.9318V18.4574C64.9413 17.2453 64.6335 16.2983 64.0085 15.6165C63.393 14.9347 62.536 14.5938 61.4375 14.5938C60.7083 14.5938 60.0644 14.7547 59.5057 15.0767C58.9564 15.3892 58.5303 15.839 58.2273 16.4261C57.9337 17.0133 57.7822 17.7235 57.7727 18.5568ZM86.3771 31.4119C84.0949 31.4119 82.1252 30.9621 80.468 30.0625C78.8203 29.1534 77.5514 27.8608 76.6612 26.1847C75.7805 24.4991 75.3402 22.4962 75.3402 20.1761C75.3402 17.9223 75.7853 15.9527 76.6754 14.267C77.5656 12.572 78.8203 11.2557 80.4396 10.3182C82.0589 9.37121 83.9671 8.89773 86.1641 8.89773C87.7171 8.89773 89.1375 9.1392 90.4254 9.62216C91.7133 10.1051 92.826 10.8201 93.7635 11.767C94.701 12.714 95.4302 13.8835 95.951 15.2756C96.4718 16.6581 96.7322 18.2443 96.7322 20.0341V21.767H77.7692V17.733H90.2692C90.2597 16.9943 90.0845 16.3362 89.7436 15.7585C89.4027 15.1809 88.9339 14.7311 88.3374 14.4091C87.7502 14.0777 87.0732 13.9119 86.3061 13.9119C85.5296 13.9119 84.8336 14.0871 84.218 14.4375C83.6025 14.7784 83.1148 15.2472 82.755 15.8438C82.3951 16.4309 82.2057 17.0985 82.1868 17.8466V21.9517C82.1868 22.8419 82.362 23.6231 82.7124 24.2955C83.0627 24.9583 83.5599 25.4744 84.2038 25.8438C84.8478 26.2131 85.6148 26.3977 86.505 26.3977C87.1205 26.3977 87.6792 26.3125 88.1811 26.142C88.683 25.9716 89.1139 25.7206 89.4737 25.3892C89.8336 25.0578 90.1035 24.6506 90.2834 24.1676L96.6612 24.3523C96.3961 25.7822 95.8137 27.0275 94.9141 28.0881C94.0239 29.1392 92.8544 29.9583 91.4055 30.5455C89.9567 31.1231 88.2805 31.4119 86.3771 31.4119ZM119.328 15.8438L112.95 16.0142C112.884 15.5597 112.704 15.1572 112.411 14.8068C112.117 14.447 111.733 14.1676 111.26 13.9688C110.796 13.7604 110.256 13.6562 109.641 13.6562C108.836 13.6562 108.149 13.8172 107.581 14.1392C107.022 14.4612 106.748 14.8968 106.757 15.446C106.748 15.8722 106.918 16.2415 107.268 16.554C107.628 16.8665 108.268 17.1174 109.186 17.3068L113.391 18.1023C115.569 18.5189 117.188 19.2102 118.249 20.1761C119.319 21.142 119.858 22.4205 119.868 24.0114C119.858 25.5076 119.413 26.8097 118.533 27.9176C117.661 29.0256 116.468 29.8873 114.953 30.5028C113.438 31.1089 111.705 31.4119 109.754 31.4119C106.639 31.4119 104.181 30.7727 102.382 29.4943C100.592 28.2064 99.5696 26.483 99.3139 24.3239L106.175 24.1534C106.326 24.9489 106.719 25.5549 107.354 25.9716C107.988 26.3883 108.798 26.5966 109.783 26.5966C110.673 26.5966 111.397 26.4309 111.956 26.0994C112.515 25.768 112.799 25.3277 112.808 24.7784C112.799 24.286 112.581 23.893 112.155 23.5994C111.729 23.2964 111.061 23.0597 110.152 22.8892L106.345 22.1648C104.158 21.767 102.529 21.0331 101.459 19.9631C100.389 18.8835 99.8584 17.5104 99.8679 15.8438C99.8584 14.3854 100.247 13.1402 101.033 12.108C101.819 11.0663 102.936 10.2708 104.385 9.72159C105.834 9.17235 107.543 8.89773 109.513 8.89773C112.467 8.89773 114.797 9.51799 116.501 10.7585C118.206 11.9896 119.148 13.6847 119.328 15.8438ZM142.336 15.8438L135.958 16.0142C135.892 15.5597 135.712 15.1572 135.418 14.8068C135.125 14.447 134.741 14.1676 134.268 13.9688C133.804 13.7604 133.264 13.6562 132.648 13.6562C131.844 13.6562 131.157 13.8172 130.589 14.1392C130.03 14.4612 129.755 14.8968 129.765 15.446C129.755 15.8722 129.926 16.2415 130.276 16.554C130.636 16.8665 131.275 17.1174 132.194 17.3068L136.398 18.1023C138.576 18.5189 140.196 19.2102 141.256 20.1761C142.326 21.142 142.866 22.4205 142.876 24.0114C142.866 25.5076 142.421 26.8097 141.54 27.9176C140.669 29.0256 139.476 29.8873 137.961 30.5028C136.446 31.1089 134.713 31.4119 132.762 31.4119C129.647 31.4119 127.189 30.7727 125.39 29.4943C123.6 28.2064 122.577 26.483 122.322 24.3239L129.183 24.1534C129.334 24.9489 129.727 25.5549 130.362 25.9716C130.996 26.3883 131.806 26.5966 132.79 26.5966C133.681 26.5966 134.405 26.4309 134.964 26.0994C135.522 25.768 135.807 25.3277 135.816 24.7784C135.807 24.286 135.589 23.893 135.163 23.5994C134.737 23.2964 134.069 23.0597 133.16 22.8892L129.353 22.1648C127.165 21.767 125.537 21.0331 124.467 19.9631C123.397 18.8835 122.866 17.5104 122.876 15.8438C122.866 14.3854 123.254 13.1402 124.04 12.108C124.826 11.0663 125.944 10.2708 127.393 9.72159C128.842 9.17235 130.551 8.89773 132.521 8.89773C135.475 8.89773 137.805 9.51799 139.509 10.7585C141.214 11.9896 142.156 13.6847 142.336 15.8438ZM153.938 7.61932V1.90909H178.526V7.61932H169.705V31H162.773V7.61932H153.938ZM179.694 31V9.18182H186.441V13.1591H186.668C187.066 11.7197 187.715 10.6496 188.614 9.94886C189.514 9.23864 190.56 8.88352 191.754 8.88352C192.076 8.88352 192.407 8.9072 192.748 8.95455C193.089 8.99242 193.406 9.05398 193.7 9.1392V15.1761C193.368 15.0625 192.933 14.9725 192.393 14.9062C191.862 14.84 191.389 14.8068 190.972 14.8068C190.148 14.8068 189.405 14.9915 188.742 15.3608C188.089 15.7206 187.573 16.2273 187.194 16.8807C186.825 17.5246 186.64 18.2822 186.64 19.1534V31H179.694ZM201.86 31.3693C200.468 31.3693 199.232 31.1373 198.153 30.6733C197.083 30.1998 196.235 29.4896 195.61 28.5426C194.995 27.5862 194.687 26.3883 194.687 24.9489C194.687 23.7367 194.9 22.714 195.326 21.8807C195.752 21.0473 196.339 20.3703 197.087 19.8494C197.835 19.3286 198.697 18.9356 199.673 18.6705C200.648 18.3958 201.69 18.2112 202.798 18.1165C204.038 18.0028 205.037 17.8845 205.795 17.7614C206.552 17.6288 207.102 17.4441 207.442 17.2074C207.793 16.9612 207.968 16.6155 207.968 16.1705V16.0994C207.968 15.3703 207.717 14.8068 207.215 14.4091C206.713 14.0114 206.036 13.8125 205.184 13.8125C204.265 13.8125 203.527 14.0114 202.968 14.4091C202.409 14.8068 202.054 15.3561 201.903 16.0568L195.496 15.8295C195.686 14.5038 196.174 13.3201 196.96 12.2784C197.755 11.2273 198.844 10.4034 200.227 9.80682C201.619 9.20076 203.29 8.89773 205.241 8.89773C206.633 8.89773 207.916 9.06345 209.09 9.39489C210.264 9.71686 211.287 10.1903 212.158 10.8153C213.03 11.4309 213.702 12.1884 214.175 13.0881C214.658 13.9877 214.9 15.0152 214.9 16.1705V31H208.366V27.9602H208.195C207.807 28.6989 207.31 29.3239 206.704 29.8352C206.107 30.3466 205.402 30.7301 204.587 30.9858C203.782 31.2415 202.873 31.3693 201.86 31.3693ZM204.005 26.8239C204.753 26.8239 205.425 26.6723 206.022 26.3693C206.628 26.0663 207.111 25.6496 207.471 25.1193C207.831 24.5795 208.011 23.9545 208.011 23.2443V21.1705C207.812 21.2746 207.57 21.3693 207.286 21.4545C207.012 21.5398 206.709 21.6203 206.377 21.696C206.046 21.7718 205.705 21.8381 205.354 21.8949C205.004 21.9517 204.668 22.0038 204.346 22.0511C203.692 22.1553 203.134 22.3163 202.67 22.5341C202.215 22.7519 201.865 23.036 201.619 23.3864C201.382 23.7273 201.263 24.1345 201.263 24.608C201.263 25.3277 201.519 25.8769 202.031 26.2557C202.551 26.6345 203.21 26.8239 204.005 26.8239ZM229.332 31.4119C227.031 31.4119 225.056 30.9384 223.408 29.9915C221.77 29.0445 220.511 27.7282 219.63 26.0426C218.749 24.3475 218.309 22.3873 218.309 20.1619C218.309 17.9271 218.749 15.9669 219.63 14.2812C220.52 12.5862 221.784 11.2652 223.423 10.3182C225.07 9.37121 227.035 8.89773 229.317 8.89773C231.335 8.89773 233.091 9.26231 234.587 9.99148C236.093 10.7206 237.267 11.7528 238.11 13.0881C238.962 14.4138 239.412 15.9716 239.46 17.7614H232.968C232.835 16.6439 232.457 15.768 231.832 15.1335C231.216 14.4991 230.411 14.1818 229.417 14.1818C228.612 14.1818 227.906 14.4091 227.3 14.8636C226.694 15.3087 226.221 15.9716 225.88 16.8523C225.549 17.7235 225.383 18.803 225.383 20.0909C225.383 21.3788 225.549 22.4678 225.88 23.358C226.221 24.2386 226.694 24.9062 227.3 25.3608C227.906 25.8059 228.612 26.0284 229.417 26.0284C230.061 26.0284 230.629 25.8911 231.121 25.6165C231.623 25.3419 232.035 24.9394 232.357 24.4091C232.679 23.8693 232.883 23.2159 232.968 22.4489H239.46C239.393 24.2481 238.943 25.8201 238.11 27.1648C237.286 28.5095 236.126 29.5559 234.63 30.304C233.143 31.0426 231.377 31.4119 229.332 31.4119ZM249.278 25.2756L249.307 16.9943H250.273L256.409 9.18182H264.278L255.159 20.375H253.327L249.278 25.2756ZM243.014 31V1.90909H249.96V31H243.014ZM256.565 31L250.855 21.9375L255.429 17.0085L264.591 31H256.565ZM276.065 31.4119C273.782 31.4119 271.813 30.9621 270.156 30.0625C268.508 29.1534 267.239 27.8608 266.349 26.1847C265.468 24.4991 265.028 22.4962 265.028 20.1761C265.028 17.9223 265.473 15.9527 266.363 14.267C267.253 12.572 268.508 11.2557 270.127 10.3182C271.746 9.37121 273.655 8.89773 275.852 8.89773C277.405 8.89773 278.825 9.1392 280.113 9.62216C281.401 10.1051 282.513 10.8201 283.451 11.767C284.388 12.714 285.118 13.8835 285.638 15.2756C286.159 16.6581 286.42 18.2443 286.42 20.0341V21.767H267.457V17.733H279.957C279.947 16.9943 279.772 16.3362 279.431 15.7585C279.09 15.1809 278.621 14.7311 278.025 14.4091C277.438 14.0777 276.761 13.9119 275.994 13.9119C275.217 13.9119 274.521 14.0871 273.906 14.4375C273.29 14.7784 272.802 15.2472 272.442 15.8438C272.083 16.4309 271.893 17.0985 271.874 17.8466V21.9517C271.874 22.8419 272.049 23.6231 272.4 24.2955C272.75 24.9583 273.247 25.4744 273.891 25.8438C274.535 26.2131 275.302 26.3977 276.192 26.3977C276.808 26.3977 277.367 26.3125 277.869 26.142C278.371 25.9716 278.801 25.7206 279.161 25.3892C279.521 25.0578 279.791 24.6506 279.971 24.1676L286.349 24.3523C286.084 25.7822 285.501 27.0275 284.602 28.0881C283.711 29.1392 282.542 29.9583 281.093 30.5455C279.644 31.1231 277.968 31.4119 276.065 31.4119ZM289.967 31V9.18182H296.714V13.1591H296.942C297.339 11.7197 297.988 10.6496 298.888 9.94886C299.787 9.23864 300.834 8.88352 302.027 8.88352C302.349 8.88352 302.68 8.9072 303.021 8.95455C303.362 8.99242 303.679 9.05398 303.973 9.1392V15.1761C303.642 15.0625 303.206 14.9725 302.666 14.9062C302.136 14.84 301.662 14.8068 301.246 14.8068C300.422 14.8068 299.679 14.9915 299.016 15.3608C298.362 15.7206 297.846 16.2273 297.467 16.8807C297.098 17.5246 296.913 18.2822 296.913 19.1534V31H289.967Z" fill="url(#paint0_linear_47_441)"/>
<defs>
<linearGradient id="paint0_linear_47_441" x1="-2" y1="15" x2="309" y2="15" gradientUnits="userSpaceOnUse">
<stop stop-color="#81DEE0"/>
<stop offset="1" stop-color="#A6F2B8"/>
</linearGradient>
</defs>
</svg>
