<svg width="31" height="30" viewBox="0 0 31 30" fill="none" xmlns="http://www.w3.org/2000/svg">
<g clip-path="url(#clip0_107_985)">
<path fill-rule="evenodd" clip-rule="evenodd" d="M15.5476 0C7.27769 0 0.592285 6.875 0.592285 15.3803C0.592285 22.1791 4.87586 27.9341 10.8183 29.9709C11.5613 30.1241 11.8334 29.64 11.8334 29.2328C11.8334 28.8762 11.8089 27.6541 11.8089 26.3806C7.64871 27.2975 6.78239 24.5472 6.78239 24.5472C6.11382 22.7647 5.1232 22.3066 5.1232 22.3066C3.76157 21.3644 5.22239 21.3644 5.22239 21.3644C6.7328 21.4662 7.52535 22.9431 7.52535 22.9431C8.86218 25.2856 11.0164 24.6237 11.883 24.2162C12.0067 23.2231 12.4031 22.5356 12.824 22.1537C9.50596 21.7972 6.01494 20.4731 6.01494 14.5653C6.01494 12.8847 6.60882 11.5097 7.54984 10.4403C7.40137 10.0584 6.88127 8.47938 7.69861 6.36594C7.69861 6.36594 8.96137 5.95844 11.8086 7.94469C13.0276 7.60802 14.2848 7.43675 15.5476 7.43531C16.8103 7.43531 18.0976 7.61375 19.2863 7.94469C22.1338 5.95844 23.3966 6.36594 23.3966 6.36594C24.2139 8.47938 23.6935 10.0584 23.545 10.4403C24.5109 11.5097 25.0802 12.8847 25.0802 14.5653C25.0802 20.4731 21.5892 21.7716 18.2464 22.1537C18.7913 22.6375 19.2615 23.5541 19.2615 25.0056C19.2615 27.0681 19.237 28.7234 19.237 29.2325C19.237 29.64 19.5094 30.1241 20.2521 29.9712C26.1945 27.9337 30.4781 22.1791 30.4781 15.3803C30.5026 6.875 23.7927 0 15.5476 0Z" fill="#24292F"/>
<g clip-path="url(#clip1_107_985)">
<path fill-rule="evenodd" clip-rule="evenodd" d="M15.5476 0C7.27769 0 0.592285 6.875 0.592285 15.3803C0.592285 22.1791 4.87586 27.9341 10.8183 29.9709C11.5613 30.1241 11.8334 29.64 11.8334 29.2328C11.8334 28.8762 11.8089 27.6541 11.8089 26.3806C7.64871 27.2975 6.78239 24.5472 6.78239 24.5472C6.11382 22.7647 5.1232 22.3066 5.1232 22.3066C3.76157 21.3644 5.22239 21.3644 5.22239 21.3644C6.7328 21.4662 7.52535 22.9431 7.52535 22.9431C8.86218 25.2856 11.0164 24.6237 11.883 24.2162C12.0067 23.2231 12.4031 22.5356 12.824 22.1537C9.50596 21.7972 6.01494 20.4731 6.01494 14.5653C6.01494 12.8847 6.60882 11.5097 7.54984 10.4403C7.40137 10.0584 6.88127 8.47938 7.69861 6.36594C7.69861 6.36594 8.96137 5.95844 11.8086 7.94469C13.0276 7.60802 14.2848 7.43675 15.5476 7.43531C16.8103 7.43531 18.0976 7.61375 19.2863 7.94469C22.1338 5.95844 23.3966 6.36594 23.3966 6.36594C24.2139 8.47938 23.6935 10.0584 23.545 10.4403C24.5109 11.5097 25.0802 12.8847 25.0802 14.5653C25.0802 20.4731 21.5892 21.7716 18.2464 22.1537C18.7913 22.6375 19.2615 23.5541 19.2615 25.0056C19.2615 27.0681 19.237 28.7234 19.237 29.2325C19.237 29.64 19.5094 30.1241 20.2521 29.9712C26.1945 27.9337 30.4781 22.1791 30.4781 15.3803C30.5026 6.875 23.7927 0 15.5476 0Z" fill="#E1AFD1"/>
</g>
</g>
<defs>
<clipPath id="clip0_107_985">
<rect width="30" height="30" fill="white" transform="translate(0.592285)"/>
</clipPath>
<clipPath id="clip1_107_985">
<rect width="30" height="30" fill="white" transform="translate(0.592285)"/>
</clipPath>
</defs>
</svg>
