<svg width="31" height="31" viewBox="0 0 31 31" fill="none" xmlns="http://www.w3.org/2000/svg">
<g clip-path="url(#clip0_107_983)">
<path d="M29.0829 7.64436V23.939C29.0829 24.9975 28.2251 25.8562 27.1666 25.8562H22.6919V14.9934L15.0241 20.7459L7.35631 14.9934V25.8572H2.88256C1.82412 25.8572 0.966309 24.9994 0.966309 23.9409V23.94V7.64529C0.966309 6.05717 2.2535 4.76904 3.84162 4.76904C4.49225 4.76904 5.09225 4.98561 5.57412 5.34936L5.56662 5.34373L15.0241 12.4378L24.4816 5.34373C24.956 4.98467 25.556 4.76904 26.2066 4.76904C27.7947 4.76904 29.0829 6.05623 29.0829 7.64436Z" fill="#E1AFD1"/>
</g>
<defs>
<clipPath id="clip0_107_983">
<rect width="30" height="30" fill="white" transform="translate(0.0234375 0.30957)"/>
</clipPath>
</defs>
</svg>
