<svg width="1280" height="900" viewBox="0 0 1280 900" fill="none" xmlns="http://www.w3.org/2000/svg">
<rect width="1280" height="900" fill="#AD88C6"/>
<path d="M718.138 123.453C719.621 124.399 720.871 126.066 721.66 128.14C722.822 131.195 721.374 133.351 718.682 134.375C715.878 135.441 713.476 134.75 712.314 131.696C711.523 129.617 711.382 127.527 711.796 125.865L712.727 120.82C712.823 120.3 713.703 119.966 714.12 120.292L718.138 123.453Z" fill="#E27FF0"/>
<path d="M710.254 125.138C709.307 126.621 707.641 127.871 705.566 128.66C702.512 129.822 700.356 128.374 699.332 125.683C698.265 122.879 698.956 120.476 702.011 119.314C704.089 118.523 706.179 118.382 707.841 118.796L712.886 119.727C713.407 119.823 713.741 120.703 713.415 121.12L710.254 125.138Z" fill="#E27FF0"/>
<path d="M708.568 117.254C707.086 116.307 705.836 114.641 705.046 112.566C703.884 109.512 705.333 107.356 708.024 106.332C710.828 105.265 713.231 105.956 714.393 109.011C715.184 111.089 715.325 113.179 714.91 114.841L713.98 119.886C713.884 120.407 713.004 120.741 712.587 120.415L708.568 117.254Z" fill="#E27FF0"/>
<path d="M716.452 115.568C717.399 114.085 719.066 112.835 721.14 112.046C724.195 110.884 726.351 112.333 727.375 115.024C728.441 117.828 727.75 120.23 724.696 121.392C722.617 122.183 720.527 122.324 718.865 121.91L713.82 120.979C713.3 120.883 712.966 120.003 713.292 119.586L716.452 115.568Z" fill="#E27FF0"/>
<path d="M711.202 116.481C711.018 115.748 712.037 115.361 712.386 116.031L712.894 117.004C713.125 117.446 713.751 117.464 714.007 117.036L714.57 116.094C714.959 115.446 715.952 115.892 715.726 116.613L715.397 117.66C715.247 118.136 715.677 118.591 716.16 118.47L717.225 118.203C717.958 118.019 718.346 119.037 717.676 119.386L716.702 119.894C716.26 120.125 716.242 120.751 716.67 121.007L717.612 121.571C718.26 121.959 717.814 122.953 717.093 122.726L716.046 122.397C715.57 122.248 715.115 122.677 715.236 123.161L715.504 124.225C715.688 124.958 714.67 125.346 714.32 124.676L713.812 123.702C713.581 123.261 712.956 123.242 712.7 123.67L712.136 124.612C711.748 125.26 710.754 124.814 710.98 124.093L711.309 123.046C711.459 122.57 711.029 122.115 710.546 122.236L709.481 122.504C708.748 122.688 708.361 121.67 709.031 121.32L710.004 120.812C710.446 120.582 710.464 119.956 710.036 119.7L709.094 119.136C708.446 118.748 708.892 117.754 709.613 117.98L710.66 118.309C711.136 118.459 711.591 118.029 711.47 117.546L711.202 116.481Z" fill="#E27FF0"/>
<g style="mix-blend-mode:multiply">
<path fill-rule="evenodd" clip-rule="evenodd" d="M706.299 122.903L720.319 117.57L720.407 117.803L706.388 123.137L706.299 122.903Z" fill="#E27FF0"/>
<path d="M720.646 118.782C720.065 119.003 719.416 118.712 719.195 118.131C718.974 117.55 719.265 116.9 719.846 116.679C720.427 116.459 721.077 116.75 721.298 117.331C721.519 117.912 721.227 118.561 720.646 118.782Z" fill="#E27FF0"/>
<path d="M706.86 124.027C706.279 124.248 705.629 123.956 705.409 123.376C705.188 122.795 705.479 122.145 706.06 121.924C706.641 121.703 707.291 121.995 707.512 122.576C707.732 123.156 707.441 123.806 706.86 124.027Z" fill="#E27FF0"/>
<path fill-rule="evenodd" clip-rule="evenodd" d="M706.562 117.168L720.247 123.31L720.144 123.538L706.459 117.396L706.562 117.168Z" fill="#E27FF0"/>
<path d="M719.621 124.399C719.054 124.145 718.801 123.479 719.055 122.912C719.31 122.346 719.975 122.092 720.542 122.347C721.109 122.601 721.362 123.267 721.108 123.834C720.853 124.401 720.188 124.654 719.621 124.399Z" fill="#E27FF0"/>
<path d="M706.164 118.36C705.597 118.105 705.344 117.44 705.598 116.873C705.853 116.306 706.519 116.053 707.085 116.307C707.652 116.561 707.905 117.227 707.651 117.794C707.397 118.361 706.731 118.614 706.164 118.36Z" fill="#E27FF0"/>
<path fill-rule="evenodd" clip-rule="evenodd" d="M710.803 113.299L716.137 127.319L715.903 127.408L710.569 113.388L710.803 113.299Z" fill="#E27FF0"/>
<path d="M714.924 127.646C714.703 127.066 714.995 126.416 715.575 126.195C716.156 125.974 716.806 126.266 717.027 126.846C717.248 127.427 716.956 128.077 716.375 128.298C715.795 128.519 715.145 128.227 714.924 127.646Z" fill="#E27FF0"/>
<path d="M709.679 113.86C709.458 113.279 709.75 112.63 710.331 112.409C710.911 112.188 711.561 112.479 711.782 113.06C712.003 113.641 711.712 114.291 711.131 114.512C710.55 114.733 709.9 114.441 709.679 113.86Z" fill="#E27FF0"/>
<path fill-rule="evenodd" clip-rule="evenodd" d="M716.538 113.562L710.396 127.247L710.168 127.144L716.31 113.46L716.538 113.562Z" fill="#E27FF0"/>
<path d="M709.307 126.621C709.561 126.054 710.227 125.801 710.794 126.055C711.361 126.31 711.614 126.975 711.36 127.542C711.105 128.109 710.439 128.362 709.873 128.108C709.306 127.854 709.052 127.188 709.307 126.621Z" fill="#E27FF0"/>
<path d="M715.347 113.164C715.601 112.597 716.267 112.344 716.834 112.599C717.4 112.853 717.654 113.519 717.399 114.086C717.145 114.652 716.479 114.906 715.912 114.651C715.345 114.397 715.092 113.731 715.347 113.164Z" fill="#E27FF0"/>
<path fill-rule="evenodd" clip-rule="evenodd" d="M720.407 117.803L706.388 123.137L706.299 122.903L720.319 117.57L720.407 117.803Z" fill="#E27FF0"/>
<path d="M706.06 121.924C706.641 121.703 707.291 121.995 707.512 122.576C707.732 123.156 707.441 123.806 706.86 124.027C706.279 124.248 705.629 123.956 705.409 123.376C705.188 122.795 705.479 122.145 706.06 121.924Z" fill="#E27FF0"/>
<path d="M719.846 116.679C720.427 116.459 721.077 116.75 721.298 117.331C721.519 117.912 721.227 118.561 720.646 118.782C720.065 119.003 719.416 118.712 719.195 118.131C718.974 117.55 719.265 116.9 719.846 116.679Z" fill="#E27FF0"/>
<path fill-rule="evenodd" clip-rule="evenodd" d="M720.144 123.538L706.459 117.396L706.562 117.168L720.247 123.31L720.144 123.538Z" fill="#E27FF0"/>
<path d="M707.085 116.307C707.652 116.561 707.905 117.227 707.651 117.794C707.397 118.361 706.731 118.614 706.164 118.36C705.597 118.105 705.344 117.44 705.598 116.873C705.853 116.306 706.519 116.053 707.085 116.307Z" fill="#E27FF0"/>
<path d="M720.542 122.347C721.109 122.601 721.362 123.267 721.108 123.834C720.853 124.401 720.188 124.654 719.621 124.399C719.054 124.145 718.801 123.479 719.055 122.912C719.31 122.346 719.975 122.092 720.542 122.347Z" fill="#E27FF0"/>
<path fill-rule="evenodd" clip-rule="evenodd" d="M715.903 127.408L710.569 113.388L710.803 113.299L716.137 127.319L715.903 127.408Z" fill="#E27FF0"/>
<path d="M711.782 113.06C712.003 113.641 711.712 114.291 711.131 114.512C710.55 114.733 709.9 114.441 709.679 113.86C709.458 113.279 709.75 112.63 710.331 112.409C710.911 112.188 711.561 112.479 711.782 113.06Z" fill="#E27FF0"/>
<path d="M717.027 126.846C717.248 127.427 716.956 128.077 716.375 128.298C715.795 128.519 715.145 128.227 714.924 127.646C714.703 127.066 714.995 126.416 715.575 126.195C716.156 125.974 716.806 126.266 717.027 126.846Z" fill="#E27FF0"/>
<path fill-rule="evenodd" clip-rule="evenodd" d="M710.168 127.144L716.31 113.46L716.538 113.562L710.396 127.247L710.168 127.144Z" fill="#E27FF0"/>
<path d="M717.399 114.086C717.145 114.652 716.479 114.906 715.912 114.651C715.345 114.397 715.092 113.731 715.347 113.164C715.601 112.597 716.267 112.344 716.834 112.599C717.4 112.853 717.654 113.519 717.399 114.086Z" fill="#E27FF0"/>
<path d="M711.36 127.542C711.105 128.109 710.439 128.362 709.873 128.108C709.306 127.854 709.052 127.188 709.307 126.621C709.561 126.054 710.227 125.801 710.794 126.055C711.361 126.31 711.614 126.975 711.36 127.542Z" fill="#E27FF0"/>
</g>
<path d="M43.493 819C39.0531 819 40.2042 825.974 41.3348 829.462C38.6626 827.103 34.2432 822.231 30.8516 826.231C28.8783 829.308 36.607 832.333 40.7181 833.462C29.2483 834.323 29.4641 838.846 31.0058 841C34.5824 845.062 39.7931 839.615 41.9514 836.385C40.1014 840.744 37.4806 848.231 43.0305 849C48.2721 848.846 47.2957 840.949 46.1138 837.154C49.1457 839.667 55.6719 842.077 57.6761 838.538C59.6494 833.615 52.1262 833.513 48.1179 834.077C51.6637 833.051 57.3677 829.462 55.8261 826.231C53.8982 822.19 47.5526 827.103 44.8805 829.923C46.268 826.282 47.933 819 43.493 819Z" fill="white"/>
<path fill-rule="evenodd" clip-rule="evenodd" d="M43.9105 821.199C43.9707 821.259 43.9707 821.356 43.9105 821.416C43.8471 821.48 43.7768 821.616 43.7109 821.841C43.6468 822.061 43.5927 822.343 43.5482 822.676C43.4592 823.341 43.4102 824.191 43.3891 825.107C43.3468 826.939 43.416 829.019 43.493 830.376C43.4978 830.461 43.4328 830.533 43.3478 830.538C43.2627 830.543 43.1899 830.478 43.1851 830.393C43.1079 829.032 43.0383 826.943 43.0809 825.1C43.1021 824.179 43.1514 823.316 43.2426 822.635C43.2882 822.294 43.3447 821.995 43.4149 821.755C43.4833 821.521 43.5709 821.32 43.6925 821.199C43.7527 821.139 43.8503 821.139 43.9105 821.199ZM36.6736 828.617C38.0702 829.347 39.3208 830.261 40.0478 830.883C40.1124 830.938 40.1199 831.036 40.0645 831.1C40.0091 831.165 39.9118 831.172 39.8471 831.117C39.1353 830.508 37.9038 829.607 36.5307 828.89C35.1522 828.17 33.6568 827.65 32.4081 827.769C32.3233 827.777 32.2481 827.715 32.24 827.63C32.2319 827.545 32.2941 827.47 32.3788 827.462C33.72 827.335 35.2822 827.891 36.6736 828.617ZM54.2797 827.577C54.3012 827.659 54.2518 827.743 54.1694 827.764C52.7758 828.127 51.1355 829.013 49.6437 829.983C48.1547 830.95 46.8267 831.992 46.0608 832.655C45.9964 832.71 45.8991 832.703 45.8433 832.639C45.7876 832.575 45.7945 832.478 45.8589 832.422C46.6345 831.751 47.9737 830.701 49.4754 829.725C50.9744 828.751 52.6486 827.842 54.0916 827.466C54.174 827.445 54.2582 827.494 54.2797 827.577ZM40.0948 835.262C40.1199 835.344 40.0742 835.43 39.9928 835.455C38.9987 835.76 37.4282 836.356 35.9547 837.151C34.474 837.949 33.1218 838.932 32.5282 839.998C32.4869 840.072 32.393 840.099 32.3186 840.058C32.2442 840.016 32.2173 839.923 32.2587 839.848C32.8984 838.699 34.3212 837.682 35.8081 836.88C37.3023 836.074 38.8921 835.471 39.9021 835.161C39.9835 835.136 40.0698 835.181 40.0948 835.262ZM47.0506 835.864C47.083 835.786 47.1731 835.748 47.2519 835.781C48.1154 836.136 49.6152 836.617 51.2966 836.902C52.9801 837.188 54.8305 837.274 56.4029 836.851C56.4851 836.829 56.5697 836.878 56.5918 836.96C56.614 837.042 56.5653 837.126 56.4831 837.149C54.8489 837.588 52.948 837.494 51.245 837.205C49.54 836.916 48.0182 836.428 47.1345 836.065C47.0557 836.033 47.0182 835.943 47.0506 835.864ZM43.7882 837.77C43.873 837.762 43.9477 837.825 43.9551 837.91C44.0584 839.095 44.1358 840.979 44.0325 842.786C43.9809 843.689 43.8839 844.576 43.7212 845.348C43.5592 846.117 43.329 846.786 43.002 847.243C42.9525 847.312 42.8563 847.328 42.787 847.279C42.7177 847.23 42.7016 847.134 42.7511 847.064C43.0408 846.66 43.2603 846.04 43.4195 845.285C43.5779 844.533 43.6736 843.662 43.7247 842.768C43.827 840.98 43.7502 839.11 43.6479 837.936C43.6406 837.852 43.7034 837.777 43.7882 837.77Z" fill="#CDCDCD"/>
<ellipse cx="43.6621" cy="833.308" rx="1.6958" ry="1.69231" fill="#CDCDCD"/>
<ellipse cx="43.6624" cy="833.308" rx="0.770818" ry="0.769231" fill="#9B9B9B"/>
<g style="mix-blend-mode:multiply">
<path d="M43.493 819C39.0531 819 40.2042 825.974 41.3348 829.462C38.6626 827.103 34.2432 822.231 30.8516 826.231C28.8783 829.308 36.607 832.333 40.7181 833.462C29.2483 834.323 29.4641 838.846 31.0058 841C34.5824 845.062 39.7931 839.615 41.9514 836.385C40.1014 840.744 37.4806 848.231 43.0305 849C48.2721 848.846 47.2957 840.949 46.1138 837.154C49.1457 839.667 55.6719 842.077 57.6761 838.538C59.6494 833.615 52.1262 833.513 48.1179 834.077C51.6637 833.051 57.3677 829.462 55.8261 826.231C53.8982 822.19 47.5526 827.103 44.8805 829.923C46.268 826.282 47.933 819 43.493 819Z" fill="#E1AFD1"/>
<path fill-rule="evenodd" clip-rule="evenodd" d="M43.9105 821.199C43.9707 821.259 43.9707 821.356 43.9105 821.416C43.8471 821.48 43.7768 821.616 43.7109 821.841C43.6468 822.061 43.5927 822.343 43.5482 822.676C43.4592 823.341 43.4102 824.191 43.3891 825.107C43.3468 826.939 43.416 829.019 43.493 830.376C43.4978 830.461 43.4328 830.533 43.3478 830.538C43.2627 830.543 43.1899 830.478 43.1851 830.393C43.1079 829.032 43.0383 826.943 43.0809 825.1C43.1021 824.179 43.1514 823.316 43.2426 822.635C43.2882 822.294 43.3447 821.995 43.4149 821.755C43.4833 821.521 43.5709 821.32 43.6925 821.199C43.7527 821.139 43.8503 821.139 43.9105 821.199ZM36.6736 828.617C38.0702 829.347 39.3208 830.261 40.0478 830.883C40.1124 830.938 40.1199 831.036 40.0645 831.1C40.0091 831.165 39.9118 831.172 39.8471 831.117C39.1353 830.508 37.9038 829.607 36.5307 828.89C35.1522 828.17 33.6568 827.65 32.4081 827.769C32.3233 827.777 32.2481 827.715 32.24 827.63C32.2319 827.545 32.2941 827.47 32.3788 827.462C33.72 827.335 35.2822 827.891 36.6736 828.617ZM54.2797 827.577C54.3012 827.659 54.2518 827.743 54.1694 827.764C52.7758 828.127 51.1355 829.013 49.6437 829.983C48.1547 830.95 46.8267 831.992 46.0608 832.655C45.9964 832.71 45.8991 832.703 45.8433 832.639C45.7876 832.575 45.7945 832.478 45.8589 832.422C46.6345 831.751 47.9737 830.701 49.4754 829.725C50.9744 828.751 52.6486 827.842 54.0916 827.466C54.174 827.445 54.2582 827.494 54.2797 827.577ZM40.0948 835.262C40.1199 835.344 40.0742 835.43 39.9928 835.455C38.9987 835.76 37.4282 836.356 35.9547 837.151C34.474 837.949 33.1218 838.932 32.5282 839.998C32.4869 840.072 32.393 840.099 32.3186 840.058C32.2442 840.016 32.2173 839.923 32.2587 839.848C32.8984 838.699 34.3212 837.682 35.8081 836.88C37.3023 836.074 38.8921 835.471 39.9021 835.161C39.9835 835.136 40.0698 835.181 40.0948 835.262ZM47.0506 835.864C47.083 835.786 47.1731 835.748 47.2519 835.781C48.1154 836.136 49.6152 836.617 51.2966 836.902C52.9801 837.188 54.8305 837.274 56.4029 836.851C56.4851 836.829 56.5697 836.878 56.5918 836.96C56.614 837.042 56.5653 837.126 56.4831 837.149C54.8489 837.588 52.948 837.494 51.245 837.205C49.54 836.916 48.0182 836.428 47.1345 836.065C47.0557 836.033 47.0182 835.943 47.0506 835.864ZM43.7882 837.77C43.873 837.762 43.9477 837.825 43.9551 837.91C44.0584 839.095 44.1358 840.979 44.0325 842.786C43.9809 843.689 43.8839 844.576 43.7212 845.348C43.5592 846.117 43.329 846.786 43.002 847.243C42.9525 847.312 42.8563 847.328 42.787 847.279C42.7177 847.23 42.7016 847.134 42.7511 847.064C43.0408 846.66 43.2603 846.04 43.4195 845.285C43.5779 844.533 43.6736 843.662 43.7247 842.768C43.827 840.98 43.7502 839.11 43.6479 837.936C43.6406 837.852 43.7034 837.777 43.7882 837.77Z" fill="#E1AFD1"/>
<ellipse cx="43.6621" cy="833.308" rx="1.6958" ry="1.69231" fill="#E1AFD1"/>
<ellipse cx="43.6624" cy="833.308" rx="0.770818" ry="0.769231" fill="#E1AFD1"/>
</g>
<g style="mix-blend-mode:soft-light">
<path d="M43.493 819C39.0531 819 40.2042 825.974 41.3348 829.462C38.6626 827.103 34.2432 822.231 30.8516 826.231C28.8783 829.308 36.607 832.333 40.7181 833.462C29.2483 834.323 29.4641 838.846 31.0058 841C34.5824 845.062 39.7931 839.615 41.9514 836.385C40.1014 840.744 37.4806 848.231 43.0305 849C48.2721 848.846 47.2957 840.949 46.1138 837.154C49.1457 839.667 55.6719 842.077 57.6761 838.538C59.6494 833.615 52.1262 833.513 48.1179 834.077C51.6637 833.051 57.3677 829.462 55.8261 826.231C53.8982 822.19 47.5526 827.103 44.8805 829.923C46.268 826.282 47.933 819 43.493 819Z" fill="#E1AFD1"/>
<path fill-rule="evenodd" clip-rule="evenodd" d="M43.9105 821.199C43.9707 821.259 43.9707 821.356 43.9105 821.416C43.8471 821.48 43.7768 821.616 43.7109 821.841C43.6468 822.061 43.5927 822.343 43.5482 822.676C43.4592 823.341 43.4102 824.191 43.3891 825.107C43.3468 826.939 43.416 829.019 43.493 830.376C43.4978 830.461 43.4328 830.533 43.3478 830.538C43.2627 830.543 43.1899 830.478 43.1851 830.393C43.1079 829.032 43.0383 826.943 43.0809 825.1C43.1021 824.179 43.1514 823.316 43.2426 822.635C43.2882 822.294 43.3447 821.995 43.4149 821.755C43.4833 821.521 43.5709 821.32 43.6925 821.199C43.7527 821.139 43.8503 821.139 43.9105 821.199ZM36.6736 828.617C38.0702 829.347 39.3208 830.261 40.0478 830.883C40.1124 830.938 40.1199 831.036 40.0645 831.1C40.0091 831.165 39.9118 831.172 39.8471 831.117C39.1353 830.508 37.9038 829.607 36.5307 828.89C35.1522 828.17 33.6568 827.65 32.4081 827.769C32.3233 827.777 32.2481 827.715 32.24 827.63C32.2319 827.545 32.2941 827.47 32.3788 827.462C33.72 827.335 35.2822 827.891 36.6736 828.617ZM54.2797 827.577C54.3012 827.659 54.2518 827.743 54.1694 827.764C52.7758 828.127 51.1355 829.013 49.6437 829.983C48.1547 830.95 46.8267 831.992 46.0608 832.655C45.9964 832.71 45.8991 832.703 45.8433 832.639C45.7876 832.575 45.7945 832.478 45.8589 832.422C46.6345 831.751 47.9737 830.701 49.4754 829.725C50.9744 828.751 52.6486 827.842 54.0916 827.466C54.174 827.445 54.2582 827.494 54.2797 827.577ZM40.0948 835.262C40.1199 835.344 40.0742 835.43 39.9928 835.455C38.9987 835.76 37.4282 836.356 35.9547 837.151C34.474 837.949 33.1218 838.932 32.5282 839.998C32.4869 840.072 32.393 840.099 32.3186 840.058C32.2442 840.016 32.2173 839.923 32.2587 839.848C32.8984 838.699 34.3212 837.682 35.8081 836.88C37.3023 836.074 38.8921 835.471 39.9021 835.161C39.9835 835.136 40.0698 835.181 40.0948 835.262ZM47.0506 835.864C47.083 835.786 47.1731 835.748 47.2519 835.781C48.1154 836.136 49.6152 836.617 51.2966 836.902C52.9801 837.188 54.8305 837.274 56.4029 836.851C56.4851 836.829 56.5697 836.878 56.5918 836.96C56.614 837.042 56.5653 837.126 56.4831 837.149C54.8489 837.588 52.948 837.494 51.245 837.205C49.54 836.916 48.0182 836.428 47.1345 836.065C47.0557 836.033 47.0182 835.943 47.0506 835.864ZM43.7882 837.77C43.873 837.762 43.9477 837.825 43.9551 837.91C44.0584 839.095 44.1358 840.979 44.0325 842.786C43.9809 843.689 43.8839 844.576 43.7212 845.348C43.5592 846.117 43.329 846.786 43.002 847.243C42.9525 847.312 42.8563 847.328 42.787 847.279C42.7177 847.23 42.7016 847.134 42.7511 847.064C43.0408 846.66 43.2603 846.04 43.4195 845.285C43.5779 844.533 43.6736 843.662 43.7247 842.768C43.827 840.98 43.7502 839.11 43.6479 837.936C43.6406 837.852 43.7034 837.777 43.7882 837.77Z" fill="#E1AFD1"/>
<ellipse cx="43.6621" cy="833.308" rx="1.6958" ry="1.69231" fill="#E1AFD1"/>
<ellipse cx="43.6624" cy="833.308" rx="0.770818" ry="0.769231" fill="#E1AFD1"/>
</g>
<path d="M800.086 774.946C801.673 774.232 803.924 773.553 806.144 774.059C810.224 774.991 810.391 778.43 808.233 780.178C809.425 782.659 807.776 785.715 803.696 784.784C801.564 784.297 799.89 782.775 798.759 781.513L795.147 777.957C794.775 777.59 794.985 776.672 795.48 776.505L800.086 774.946Z" fill="#ECA9F5"/>
<path d="M799.867 779.631C801.415 780.427 803.349 781.763 804.337 783.815C806.153 787.585 803.568 789.86 800.856 789.262C799.66 791.742 796.242 792.358 794.427 788.587C793.478 786.617 793.624 784.359 793.905 782.688L794.434 777.647C794.488 777.127 795.337 776.719 795.776 777.002L799.867 779.631Z" fill="#ECA9F5"/>
<path d="M795.998 782.395C796.34 784.102 796.502 786.447 795.514 788.499C793.698 792.269 790.308 791.666 789.084 789.173C786.4 789.784 783.787 787.496 785.603 783.726C786.552 781.755 788.409 780.462 789.89 779.64L794.161 776.91C794.602 776.629 795.45 777.038 795.503 777.558L795.998 782.395Z" fill="#ECA9F5"/>
<path d="M791.353 781.357C790.232 782.689 788.499 784.278 786.279 784.784C782.199 785.716 780.556 782.69 781.742 780.178C779.591 778.46 779.751 774.991 783.831 774.06C785.964 773.574 788.132 774.219 789.698 774.864L794.495 776.502C794.99 776.671 795.199 777.588 794.826 777.954L791.353 781.357Z" fill="#ECA9F5"/>
<path d="M789.519 776.84C787.779 776.794 785.457 776.43 783.676 775.01C780.404 772.4 781.746 769.23 784.449 768.591C784.451 765.838 787.263 763.8 790.535 766.409C792.245 767.773 793.093 769.871 793.564 771.498L795.275 776.269C795.452 776.762 794.864 777.497 794.345 777.434L789.519 776.84Z" fill="#ECA9F5"/>
<path d="M791.687 772.64C790.638 771.251 789.475 769.208 789.475 766.931C789.475 762.746 792.791 761.818 794.975 763.533C797.129 761.818 800.475 762.746 800.475 766.931C800.475 769.118 799.364 771.089 798.386 772.472L795.722 776.785C795.447 777.23 794.506 777.229 794.232 776.784L791.687 772.64Z" fill="#ECA9F5"/>
<path d="M796.566 771.767C796.998 770.081 797.87 767.898 799.65 766.478C802.922 763.868 805.715 765.882 805.736 768.659C808.419 769.274 809.781 772.469 806.509 775.078C804.799 776.442 802.565 776.801 800.874 776.899L795.841 777.505C795.322 777.568 794.736 776.832 794.913 776.34L796.566 771.767Z" fill="#ECA9F5"/>
<g style="mix-blend-mode:multiply">
<path d="M794.359 771.442C794.432 770.664 795.568 770.664 795.641 771.442V771.442C795.699 772.061 796.513 772.246 796.834 771.715V771.715C797.237 771.045 798.26 771.538 797.989 772.271V772.271C797.773 772.853 798.425 773.374 798.945 773.034V773.034C799.599 772.606 800.307 773.494 799.745 774.036V774.036C799.298 774.467 799.66 775.219 800.276 775.138V775.138C801.05 775.037 801.303 776.144 800.561 776.388V776.388C799.971 776.583 799.971 777.417 800.561 777.612V777.612C801.303 777.856 801.05 778.963 800.275 778.862V778.862C799.66 778.781 799.298 779.533 799.745 779.964V779.964C800.307 780.506 799.599 781.394 798.945 780.966V780.966C798.425 780.627 797.773 781.147 797.989 781.729V781.729C798.26 782.462 797.237 782.955 796.834 782.285V782.285C796.513 781.754 795.699 781.939 795.641 782.558V782.558C795.568 783.336 794.432 783.336 794.359 782.558V782.558C794.3 781.939 793.487 781.754 793.166 782.285V782.285C792.762 782.955 791.739 782.462 792.011 781.729V781.729C792.227 781.147 791.574 780.627 791.054 780.966V780.966C790.4 781.394 789.692 780.506 790.255 779.964V779.964C790.702 779.533 790.34 778.781 789.724 778.862V778.862C788.949 778.963 788.697 777.856 789.439 777.612V777.612C790.029 777.417 790.029 776.583 789.439 776.388V776.388C788.697 776.144 788.949 775.037 789.724 775.138V775.138C790.34 775.219 790.702 774.467 790.255 774.036V774.036C789.692 773.494 790.4 772.606 791.054 773.034V773.034C791.574 773.374 792.227 772.853 792.011 772.271V772.271C791.739 771.538 792.762 771.045 793.166 771.715V771.715C793.487 772.246 794.3 772.061 794.359 771.442V771.442Z" fill="#ECA9F5"/>
</g>
<g style="mix-blend-mode:multiply">
<path fill-rule="evenodd" clip-rule="evenodd" d="M794.154 771.423C794.251 770.396 795.749 770.396 795.846 771.423C795.886 771.844 796.439 771.97 796.658 771.608C797.19 770.725 798.54 771.375 798.182 772.342C798.035 772.739 798.479 773.092 798.833 772.861C799.696 772.297 800.63 773.468 799.888 774.184C799.584 774.478 799.83 774.989 800.249 774.934C801.272 774.8 801.605 776.261 800.626 776.584C800.224 776.716 800.224 777.284 800.626 777.416C801.605 777.739 801.272 779.2 800.249 779.066C799.83 779.011 799.584 779.522 799.888 779.816C800.63 780.532 799.696 781.703 798.833 781.139C798.479 780.907 798.035 781.261 798.182 781.658C798.54 782.625 797.19 783.275 796.658 782.392C796.439 782.03 795.886 782.156 795.846 782.577C795.749 783.604 794.251 783.604 794.154 782.577C794.114 782.156 793.561 782.03 793.343 782.392C792.81 783.275 791.46 782.625 791.818 781.658C791.965 781.261 791.521 780.907 791.167 781.139C790.304 781.703 789.37 780.532 790.112 779.816C790.416 779.522 790.17 779.011 789.751 779.066C788.729 779.2 788.395 777.739 789.375 777.416C789.776 777.284 789.776 776.716 789.375 776.584C788.395 776.261 788.729 774.8 789.751 774.934C790.17 774.989 790.416 774.478 790.112 774.184C789.37 773.468 790.304 772.297 791.167 772.861C791.521 773.092 791.965 772.739 791.818 772.342C791.46 771.375 792.81 770.725 793.343 771.608C793.561 771.97 794.114 771.844 794.154 771.423ZM795.436 771.462C795.386 770.932 794.614 770.932 794.564 771.462C794.487 772.278 793.414 772.523 792.99 771.821C792.716 771.366 792.02 771.701 792.204 772.199C792.489 772.968 791.628 773.654 790.942 773.206C790.497 772.915 790.015 773.519 790.398 773.888C790.988 774.457 790.51 775.449 789.698 775.342C789.171 775.273 788.999 776.026 789.504 776.193C790.282 776.449 790.282 777.551 789.504 777.807C788.999 777.974 789.171 778.727 789.698 778.658C790.51 778.551 790.988 779.543 790.398 780.112C790.016 780.481 790.497 781.085 790.942 780.794C791.628 780.346 792.489 781.032 792.204 781.801C792.02 782.299 792.716 782.634 792.99 782.179C793.414 781.477 794.487 781.722 794.564 782.538C794.614 783.068 795.386 783.068 795.436 782.538C795.513 781.722 796.587 781.477 797.01 782.179C797.285 782.634 797.981 782.299 797.796 781.801C797.511 781.032 798.372 780.346 799.058 780.794C799.503 781.085 799.985 780.481 799.602 780.112C799.012 779.543 799.49 778.551 800.303 778.658C800.83 778.727 801.002 777.974 800.497 777.807C799.718 777.551 799.718 776.449 800.497 776.193C801.002 776.026 800.83 775.273 800.303 775.342C799.49 775.449 799.012 774.457 799.602 773.888C799.985 773.519 799.503 772.915 799.058 773.206C798.372 773.654 797.511 772.968 797.796 772.199C797.981 771.701 797.285 771.366 797.01 771.821C796.587 772.523 795.513 772.278 795.436 771.462Z" fill="#ECA9F5"/>
</g>
<path d="M1130.56 327.012C1133 328.303 1137.86 329.778 1138.64 328.313C1139.41 326.848 1135.45 323.661 1133.01 322.371C1130.57 321.08 1126.15 319.839 1125.38 321.304C1124.6 322.769 1128.12 325.722 1130.56 327.012Z" fill="#D25EE1"/>
<path d="M1124.14 328.915C1124.66 331.629 1126.54 336.35 1128.16 336.042C1129.79 335.734 1129.82 330.653 1129.3 327.939C1128.79 325.226 1127 320.996 1125.38 321.304C1123.75 321.612 1123.63 326.202 1124.14 328.915Z" fill="#D25EE1"/>
<path d="M1118.66 325.087C1116.86 327.18 1114.33 331.593 1115.59 332.673C1116.85 333.754 1120.83 330.604 1122.64 328.511C1124.44 326.418 1126.63 322.385 1125.38 321.304C1124.12 320.223 1120.46 322.994 1118.66 325.087Z" fill="#D25EE1"/>
<path d="M1118.23 318.41C1115.47 318.306 1110.45 319.087 1110.39 320.743C1110.32 322.399 1115.27 323.553 1118.03 323.656C1120.79 323.759 1125.31 322.96 1125.38 321.304C1125.44 319.648 1120.99 318.513 1118.23 318.41Z" fill="#D25EE1"/>
<path d="M1123.18 313.912C1121.54 311.69 1117.8 308.251 1116.47 309.235C1115.14 310.219 1117.32 314.807 1118.96 317.029C1120.6 319.251 1124.04 322.288 1125.38 321.304C1126.71 320.32 1124.82 316.134 1123.18 313.912Z" fill="#D25EE1"/>
<path d="M1129.79 314.98C1130.5 312.313 1130.86 307.244 1129.26 306.815C1127.66 306.386 1125.43 310.954 1124.72 313.622C1124 316.289 1123.77 320.875 1125.38 321.304C1126.98 321.733 1129.07 317.648 1129.79 314.98Z" fill="#D25EE1"/>
<path d="M1133.07 320.811C1135.6 319.706 1139.79 316.824 1139.12 315.306C1138.46 313.787 1133.5 314.894 1130.97 315.999C1128.44 317.103 1124.71 319.785 1125.38 321.304C1126.04 322.823 1130.54 321.915 1133.07 320.811Z" fill="#D25EE1"/>
<g style="mix-blend-mode:multiply">
<ellipse cx="1125.37" cy="321.371" rx="3.21324" ry="3.21324" transform="rotate(15 1125.37 321.371)" fill="#D25EE1"/>
<g style="mix-blend-mode:multiply">
<path d="M1127.68 322.691C1127.23 322.571 1127.04 321.818 1127.04 321.818C1127.04 321.818 1127.58 321.26 1128.03 321.38C1128.47 321.5 1129.96 322.601 1129.96 322.601C1129.96 322.601 1128.12 322.811 1127.68 322.691Z" fill="#D25EE1"/>
</g>
<g style="mix-blend-mode:multiply">
<path d="M1126.07 323.933C1125.84 323.532 1126.23 322.867 1126.23 322.867C1126.23 322.867 1127.01 322.853 1127.24 323.255C1127.47 323.656 1127.75 325.485 1127.75 325.485C1127.75 325.485 1126.3 324.335 1126.07 323.933Z" fill="#D25EE1"/>
</g>
<g style="mix-blend-mode:multiply">
<path d="M1124.05 323.675C1124.17 323.227 1124.92 323.04 1124.92 323.04C1124.92 323.04 1125.48 323.578 1125.36 324.026C1125.24 324.474 1124.14 325.959 1124.14 325.959C1124.14 325.959 1123.93 324.123 1124.05 323.675Z" fill="#D25EE1"/>
</g>
<g style="mix-blend-mode:multiply">
<path d="M1122.81 322.067C1123.21 321.835 1123.88 322.235 1123.88 322.235C1123.88 322.235 1123.89 323.01 1123.49 323.242C1123.09 323.474 1121.26 323.746 1121.26 323.746C1121.26 323.746 1122.41 322.299 1122.81 322.067Z" fill="#D25EE1"/>
</g>
<g style="mix-blend-mode:multiply">
<path d="M1123.07 320.051C1123.52 320.171 1123.7 320.924 1123.7 320.924C1123.7 320.924 1123.16 321.482 1122.72 321.362C1122.27 321.242 1120.78 320.142 1120.78 320.142C1120.78 320.142 1122.62 319.931 1123.07 320.051Z" fill="#D25EE1"/>
</g>
<g style="mix-blend-mode:multiply">
<path d="M1124.68 318.809C1124.91 319.21 1124.51 319.875 1124.51 319.875C1124.51 319.875 1123.73 319.889 1123.5 319.487C1123.27 319.086 1123 317.258 1123 317.258C1123 317.258 1124.44 318.407 1124.68 318.809Z" fill="#D25EE1"/>
</g>
<g style="mix-blend-mode:multiply">
<path d="M1126.69 319.067C1126.57 319.515 1125.82 319.703 1125.82 319.703C1125.82 319.703 1125.26 319.164 1125.38 318.716C1125.5 318.268 1126.6 316.783 1126.6 316.783C1126.6 316.783 1126.81 318.619 1126.69 319.067Z" fill="#D25EE1"/>
</g>
<g style="mix-blend-mode:multiply">
<path d="M1127.93 320.675C1127.53 320.907 1126.87 320.507 1126.87 320.507C1126.87 320.507 1126.85 319.732 1127.26 319.5C1127.66 319.268 1129.49 318.996 1129.49 318.996C1129.49 318.996 1128.34 320.443 1127.93 320.675Z" fill="#D25EE1"/>
</g>
</g>
<path d="M88.8999 127.438C85.0841 129.135 85.7201 133.802 86.515 135.923C84.9251 136.365 81.7983 138.31 82.0103 142.552C82.2222 146.795 87.0451 147.325 89.43 147.06C88.794 152.788 93.7581 154.573 96.3197 154.75C103.103 154.538 103.916 149.358 103.474 146.795C107.714 149.977 110.541 147.767 111.424 146.265C113.544 140.961 109.304 137.868 106.919 136.984C110.311 133.59 108.333 130.266 106.919 129.029C101.831 124.786 98.2629 128.852 97.1146 131.415C95.9663 129.383 92.7158 125.741 88.8999 127.438Z" fill="#CDCDCD"/>
<path d="M92.8647 128.326C89.6964 129.72 88.7987 134.711 89.4588 136.454C88.1387 136.817 85.5425 138.415 85.7185 141.902C85.8945 145.388 89.8989 145.824 91.8791 145.606C91.351 150.313 94.9776 151.25 97.1045 151.395C101.874 151.13 102.771 147.713 102.404 145.606C105.925 148.221 109.407 146.187 110.141 144.952C111.901 140.594 109.706 137.803 107.725 137.076C110.542 134.287 108.581 130.529 107.704 129.652C103.994 125.939 99.7544 126.204 97.1045 131.243C96.5745 130.182 94.9846 127.393 92.8647 128.326Z" fill="white"/>
<path d="M90.512 151.774L95.8017 142.606L89.4322 148.98C89.3984 148.713 89.3789 148.435 89.375 148.146L95.3569 142.16L86.9395 147.023C86.6241 146.98 86.3048 146.922 85.9881 146.845L95.0433 141.613L83.3693 144.743L83.2063 144.135L94.8803 141.005L82.7945 141.005L82.7944 140.375L94.8809 140.375L83.9438 137.443C84.1336 137.261 84.3289 137.096 84.5254 136.946L95.0432 139.767L86.1391 134.622C86.0835 134.364 86.0353 134.093 85.9979 133.813L95.3582 139.221L86.812 130.669L86.8304 130.651L86.32 130.14C86.3994 129.931 86.492 129.727 86.599 129.529L95.7527 138.688L89.7601 128.302L90.3051 127.987L96.3482 138.461L93.467 127.701C93.7388 127.849 94.0007 128.016 94.2513 128.196L96.9561 138.297L96.9561 131.146C97.0127 131.239 97.0656 131.329 97.1147 131.415C97.2423 131.131 97.3997 130.827 97.5857 130.519L97.5857 138.297L100.415 127.732C100.649 127.611 100.895 127.507 101.149 127.423L98.1939 138.46L104.236 127.987L104.781 128.302L104.782 128.302L98.7391 138.775L107.285 130.224L107.285 130.224L107.73 130.67L99.1844 139.221L108.739 133.701C108.696 133.979 108.626 134.263 108.526 134.552L99.4997 139.766L108.008 137.485C108.251 137.619 108.501 137.77 108.75 137.938L99.6616 140.375L111.128 140.375C111.25 140.577 111.361 140.787 111.461 141.005L99.6617 141.005L111.336 144.135L111.173 144.743L99.4984 141.613L109.966 147.66L109.89 147.791C109.732 147.886 109.564 147.975 109.386 148.053L99.271 142.209L104.588 147.529C104.228 147.326 103.857 147.082 103.474 146.795C103.508 146.989 103.534 147.199 103.551 147.42L98.7387 142.604L103.206 150.346C103.123 150.596 103.025 150.846 102.909 151.091L98.1936 142.919L100.996 153.384C100.821 153.508 100.635 153.625 100.438 153.736L97.5857 143.082V154.645C97.3824 154.673 97.1725 154.697 96.9561 154.714L96.9561 143.082L93.9678 154.242C93.7721 154.172 93.5752 154.094 93.379 154.007L96.3477 142.92L90.9376 152.297C90.7877 152.132 90.6453 151.958 90.512 151.774Z" fill="#9B9B9B"/>
<path d="M99.9873 135.653C101.47 136.301 101.223 138.085 100.914 138.896C101.532 139.065 102.747 139.808 102.665 141.43C102.583 143.051 100.708 143.254 99.7813 143.153C100.028 145.342 98.0991 146.024 97.1036 146.092C94.4671 146.011 94.1513 144.031 94.3229 143.051C92.6751 144.268 91.5766 143.423 91.2333 142.849C90.4094 140.822 92.0572 139.639 92.9841 139.301C91.6658 138.004 92.4348 136.734 92.9841 136.261C94.9614 134.639 96.3483 136.193 96.7946 137.173C97.2409 136.396 98.5042 135.004 99.9873 135.653Z" fill="#9B9B9B"/>
<path d="M98.6787 138.221C99.4202 138.545 99.2966 139.437 99.1421 139.842C99.4511 139.927 100.059 140.298 100.018 141.109C99.9763 141.92 99.0391 142.021 98.5757 141.971C98.6993 143.065 97.7346 143.406 97.2369 143.44C95.9186 143.4 95.7607 142.41 95.8465 141.92C95.0226 142.528 94.4733 142.106 94.3017 141.819C93.8897 140.805 94.7136 140.214 95.1771 140.045C94.518 139.396 94.9025 138.761 95.1771 138.525C96.1658 137.714 96.8592 138.491 97.0824 138.981C97.3055 138.592 97.9372 137.896 98.6787 138.221Z" fill="white"/>
<g style="mix-blend-mode:multiply">
<path d="M88.8999 127.438C85.0841 129.135 85.7201 133.802 86.515 135.923C84.9251 136.365 81.7983 138.31 82.0103 142.552C82.2222 146.795 87.0451 147.325 89.43 147.06C88.794 152.788 93.7581 154.573 96.3197 154.75C103.103 154.538 103.916 149.358 103.474 146.795C107.714 149.977 110.541 147.767 111.424 146.265C113.544 140.961 109.304 137.868 106.919 136.984C110.311 133.59 108.333 130.266 106.919 129.029C101.831 124.786 98.2629 128.852 97.1146 131.415C95.9663 129.383 92.7158 125.741 88.8999 127.438Z" fill="#A209D8"/>
<path d="M92.8647 128.326C89.6964 129.72 88.7987 134.711 89.4588 136.454C88.1387 136.817 85.5425 138.415 85.7185 141.902C85.8945 145.388 89.8989 145.824 91.8791 145.606C91.351 150.313 94.9776 151.25 97.1045 151.395C101.874 151.13 102.771 147.713 102.404 145.606C105.925 148.221 109.407 146.187 110.141 144.952C111.901 140.594 109.706 137.803 107.725 137.076C110.542 134.287 108.581 130.529 107.704 129.652C103.994 125.939 99.7544 126.204 97.1045 131.243C96.5745 130.182 94.9846 127.393 92.8647 128.326Z" fill="#A209D8"/>
<path d="M90.512 151.774L95.8017 142.606L89.4322 148.98C89.3984 148.713 89.3789 148.435 89.375 148.146L95.3569 142.16L86.9395 147.023C86.6241 146.98 86.3048 146.922 85.9881 146.845L95.0433 141.613L83.3693 144.743L83.2063 144.135L94.8803 141.005L82.7945 141.005L82.7944 140.375L94.8809 140.375L83.9438 137.443C84.1336 137.261 84.3289 137.096 84.5254 136.946L95.0432 139.767L86.1391 134.622C86.0835 134.364 86.0353 134.093 85.9979 133.813L95.3582 139.221L86.812 130.669L86.8304 130.651L86.32 130.14C86.3994 129.931 86.492 129.727 86.599 129.529L95.7527 138.688L89.7601 128.302L90.3051 127.987L96.3482 138.461L93.467 127.701C93.7388 127.849 94.0007 128.016 94.2513 128.196L96.9561 138.297L96.9561 131.146C97.0127 131.239 97.0656 131.329 97.1147 131.415C97.2423 131.131 97.3997 130.827 97.5857 130.519L97.5857 138.297L100.415 127.732C100.649 127.611 100.895 127.507 101.149 127.423L98.1939 138.46L104.236 127.987L104.781 128.302L104.782 128.302L98.7391 138.775L107.285 130.224L107.285 130.224L107.73 130.67L99.1844 139.221L108.739 133.701C108.696 133.979 108.626 134.263 108.526 134.552L99.4997 139.766L108.008 137.485C108.251 137.619 108.501 137.77 108.75 137.938L99.6616 140.375L111.128 140.375C111.25 140.577 111.361 140.787 111.461 141.005L99.6617 141.005L111.336 144.135L111.173 144.743L99.4984 141.613L109.966 147.66L109.89 147.791C109.732 147.886 109.564 147.975 109.386 148.053L99.271 142.209L104.588 147.529C104.228 147.326 103.857 147.082 103.474 146.795C103.508 146.989 103.534 147.199 103.551 147.42L98.7387 142.604L103.206 150.346C103.123 150.596 103.025 150.846 102.909 151.091L98.1936 142.919L100.996 153.384C100.821 153.508 100.635 153.625 100.438 153.736L97.5857 143.082V154.645C97.3824 154.673 97.1725 154.697 96.9561 154.714L96.9561 143.082L93.9678 154.242C93.7721 154.172 93.5752 154.094 93.379 154.007L96.3477 142.92L90.9376 152.297C90.7877 152.132 90.6453 151.958 90.512 151.774Z" fill="#A209D8"/>
<path d="M99.9873 135.653C101.47 136.301 101.223 138.085 100.914 138.896C101.532 139.065 102.747 139.808 102.665 141.43C102.583 143.051 100.708 143.254 99.7813 143.153C100.028 145.342 98.0991 146.024 97.1036 146.092C94.4671 146.011 94.1513 144.031 94.3229 143.051C92.6751 144.268 91.5766 143.423 91.2333 142.849C90.4094 140.822 92.0572 139.639 92.9841 139.301C91.6658 138.004 92.4348 136.734 92.9841 136.261C94.9614 134.639 96.3483 136.193 96.7946 137.173C97.2409 136.396 98.5042 135.004 99.9873 135.653Z" fill="#A209D8"/>
<path d="M98.6787 138.221C99.4202 138.545 99.2966 139.437 99.1421 139.842C99.4511 139.927 100.059 140.298 100.018 141.109C99.9763 141.92 99.0391 142.021 98.5757 141.971C98.6993 143.065 97.7346 143.406 97.2369 143.44C95.9186 143.4 95.7607 142.41 95.8465 141.92C95.0226 142.528 94.4733 142.106 94.3017 141.819C93.8897 140.805 94.7136 140.214 95.1771 140.045C94.518 139.396 94.9025 138.761 95.1771 138.525C96.1658 137.714 96.8592 138.491 97.0824 138.981C97.3055 138.592 97.9372 137.896 98.6787 138.221Z" fill="#A209D8"/>
</g>
<g style="mix-blend-mode:soft-light">
<path d="M88.8999 127.438C85.0841 129.135 85.7201 133.802 86.515 135.923C84.9251 136.365 81.7983 138.31 82.0103 142.552C82.2222 146.795 87.0451 147.325 89.43 147.06C88.794 152.788 93.7581 154.573 96.3197 154.75C103.103 154.538 103.916 149.358 103.474 146.795C107.714 149.977 110.541 147.767 111.424 146.265C113.544 140.961 109.304 137.868 106.919 136.984C110.311 133.59 108.333 130.266 106.919 129.029C101.831 124.786 98.2629 128.852 97.1146 131.415C95.9663 129.383 92.7158 125.741 88.8999 127.438Z" fill="#A209D8"/>
<path d="M92.8647 128.326C89.6964 129.72 88.7987 134.711 89.4588 136.454C88.1387 136.817 85.5425 138.415 85.7185 141.902C85.8945 145.388 89.8989 145.824 91.8791 145.606C91.351 150.313 94.9776 151.25 97.1045 151.395C101.874 151.13 102.771 147.713 102.404 145.606C105.925 148.221 109.407 146.187 110.141 144.952C111.901 140.594 109.706 137.803 107.725 137.076C110.542 134.287 108.581 130.529 107.704 129.652C103.994 125.939 99.7544 126.204 97.1045 131.243C96.5745 130.182 94.9846 127.393 92.8647 128.326Z" fill="#A209D8"/>
<path d="M90.512 151.774L95.8017 142.606L89.4322 148.98C89.3984 148.713 89.3789 148.435 89.375 148.146L95.3569 142.16L86.9395 147.023C86.6241 146.98 86.3048 146.922 85.9881 146.845L95.0433 141.613L83.3693 144.743L83.2063 144.135L94.8803 141.005L82.7945 141.005L82.7944 140.375L94.8809 140.375L83.9438 137.443C84.1336 137.261 84.3289 137.096 84.5254 136.946L95.0432 139.767L86.1391 134.622C86.0835 134.364 86.0353 134.093 85.9979 133.813L95.3582 139.221L86.812 130.669L86.8304 130.651L86.32 130.14C86.3994 129.931 86.492 129.727 86.599 129.529L95.7527 138.688L89.7601 128.302L90.3051 127.987L96.3482 138.461L93.467 127.701C93.7388 127.849 94.0007 128.016 94.2513 128.196L96.9561 138.297L96.9561 131.146C97.0127 131.239 97.0656 131.329 97.1147 131.415C97.2423 131.131 97.3997 130.827 97.5857 130.519L97.5857 138.297L100.415 127.732C100.649 127.611 100.895 127.507 101.149 127.423L98.1939 138.46L104.236 127.987L104.781 128.302L104.782 128.302L98.7391 138.775L107.285 130.224L107.285 130.224L107.73 130.67L99.1844 139.221L108.739 133.701C108.696 133.979 108.626 134.263 108.526 134.552L99.4997 139.766L108.008 137.485C108.251 137.619 108.501 137.77 108.75 137.938L99.6616 140.375L111.128 140.375C111.25 140.577 111.361 140.787 111.461 141.005L99.6617 141.005L111.336 144.135L111.173 144.743L99.4984 141.613L109.966 147.66L109.89 147.791C109.732 147.886 109.564 147.975 109.386 148.053L99.271 142.209L104.588 147.529C104.228 147.326 103.857 147.082 103.474 146.795C103.508 146.989 103.534 147.199 103.551 147.42L98.7387 142.604L103.206 150.346C103.123 150.596 103.025 150.846 102.909 151.091L98.1936 142.919L100.996 153.384C100.821 153.508 100.635 153.625 100.438 153.736L97.5857 143.082V154.645C97.3824 154.673 97.1725 154.697 96.9561 154.714L96.9561 143.082L93.9678 154.242C93.7721 154.172 93.5752 154.094 93.379 154.007L96.3477 142.92L90.9376 152.297C90.7877 152.132 90.6453 151.958 90.512 151.774Z" fill="#A209D8"/>
<path d="M99.9873 135.653C101.47 136.301 101.223 138.085 100.914 138.896C101.532 139.065 102.747 139.808 102.665 141.43C102.583 143.051 100.708 143.254 99.7813 143.153C100.028 145.342 98.0991 146.024 97.1036 146.092C94.4671 146.011 94.1513 144.031 94.3229 143.051C92.6751 144.268 91.5766 143.423 91.2333 142.849C90.4094 140.822 92.0572 139.639 92.9841 139.301C91.6658 138.004 92.4348 136.734 92.9841 136.261C94.9614 134.639 96.3483 136.193 96.7946 137.173C97.2409 136.396 98.5042 135.004 99.9873 135.653Z" fill="#A209D8"/>
<path d="M98.6787 138.221C99.4202 138.545 99.2966 139.437 99.1421 139.842C99.4511 139.927 100.059 140.298 100.018 141.109C99.9763 141.92 99.0391 142.021 98.5757 141.971C98.6993 143.065 97.7346 143.406 97.2369 143.44C95.9186 143.4 95.7607 142.41 95.8465 141.92C95.0226 142.528 94.4733 142.106 94.3017 141.819C93.8897 140.805 94.7136 140.214 95.1771 140.045C94.518 139.396 94.9025 138.761 95.1771 138.525C96.1658 137.714 96.8592 138.491 97.0824 138.981C97.3055 138.592 97.9372 137.896 98.6787 138.221Z" fill="#A209D8"/>
</g>
<path d="M1202.9 628.438C1199.08 630.135 1199.72 634.802 1200.52 636.923C1198.93 637.365 1195.8 639.31 1196.01 643.552C1196.22 647.795 1201.05 648.325 1203.43 648.06C1202.79 653.788 1207.76 655.573 1210.32 655.75C1217.1 655.538 1217.92 650.358 1217.47 647.795C1221.71 650.977 1224.54 648.767 1225.42 647.265C1227.54 641.961 1223.3 638.868 1220.92 637.984C1224.31 634.59 1222.33 631.266 1220.92 630.029C1215.83 625.786 1212.26 629.852 1211.11 632.415C1209.97 630.383 1206.72 626.741 1202.9 628.438Z" fill="#CDCDCD"/>
<path d="M1206.86 629.326C1203.7 630.72 1202.8 635.711 1203.46 637.454C1202.14 637.817 1199.54 639.415 1199.72 642.902C1199.89 646.388 1203.9 646.824 1205.88 646.606C1205.35 651.313 1208.98 652.25 1211.1 652.395C1215.87 652.13 1216.77 648.713 1216.4 646.606C1219.92 649.221 1223.41 647.187 1224.14 645.952C1225.9 641.594 1223.71 638.803 1221.73 638.076C1224.54 635.287 1222.58 631.529 1221.7 630.652C1217.99 626.939 1213.75 627.204 1211.1 632.243C1210.57 631.182 1208.98 628.393 1206.86 629.326Z" fill="white"/>
<path d="M1204.51 652.774L1209.8 643.606L1203.43 649.98C1203.4 649.713 1203.38 649.435 1203.38 649.146L1209.36 643.16L1200.94 648.023C1200.62 647.98 1200.3 647.922 1199.99 647.845L1209.04 642.613L1197.37 645.743L1197.21 645.135L1208.88 642.005L1196.79 642.005L1196.79 641.375L1208.88 641.375L1197.94 638.443C1198.13 638.261 1198.33 638.096 1198.53 637.946L1209.04 640.767L1200.14 635.622C1200.08 635.364 1200.04 635.093 1200 634.813L1209.36 640.221L1200.81 631.669L1200.83 631.651L1200.32 631.14C1200.4 630.931 1200.49 630.727 1200.6 630.529L1209.75 639.688L1203.76 629.302L1204.31 628.987L1210.35 639.461L1207.47 628.701C1207.74 628.849 1208 629.016 1208.25 629.196L1210.96 639.297L1210.96 632.146C1211.01 632.239 1211.07 632.329 1211.11 632.415C1211.24 632.131 1211.4 631.827 1211.59 631.519L1211.59 639.297L1214.41 628.732C1214.65 628.611 1214.89 628.507 1215.15 628.423L1212.19 639.46L1218.24 628.987L1218.78 629.302L1218.78 629.302L1212.74 639.775L1221.28 631.224L1221.29 631.224L1221.73 631.67L1213.18 640.221L1222.74 634.701C1222.7 634.979 1222.63 635.263 1222.53 635.552L1213.5 640.766L1222.01 638.485C1222.25 638.619 1222.5 638.77 1222.75 638.938L1213.66 641.375L1225.13 641.375C1225.25 641.577 1225.36 641.787 1225.46 642.005L1213.66 642.005L1225.34 645.135L1225.17 645.743L1213.5 642.613L1223.97 648.66L1223.89 648.791C1223.73 648.886 1223.56 648.975 1223.39 649.053L1213.27 643.209L1218.59 648.529C1218.23 648.326 1217.86 648.082 1217.47 647.795C1217.51 647.989 1217.53 648.199 1217.55 648.42L1212.74 643.604L1217.21 651.346C1217.12 651.596 1217.02 651.846 1216.91 652.091L1212.19 643.919L1215 654.384C1214.82 654.508 1214.64 654.625 1214.44 654.736L1211.59 644.082V655.645C1211.38 655.673 1211.17 655.697 1210.96 655.714L1210.96 644.082L1207.97 655.242C1207.77 655.172 1207.58 655.094 1207.38 655.007L1210.35 643.92L1204.94 653.297C1204.79 653.132 1204.65 652.958 1204.51 652.774Z" fill="#9B9B9B"/>
<path d="M1213.99 636.653C1215.47 637.301 1215.22 639.085 1214.91 639.896C1215.53 640.065 1216.75 640.808 1216.66 642.43C1216.58 644.051 1214.71 644.254 1213.78 644.153C1214.03 646.342 1212.1 647.024 1211.1 647.092C1208.47 647.011 1208.15 645.031 1208.32 644.051C1206.68 645.268 1205.58 644.423 1205.23 643.849C1204.41 641.822 1206.06 640.639 1206.98 640.301C1205.67 639.004 1206.43 637.734 1206.98 637.261C1208.96 635.639 1210.35 637.193 1210.79 638.173C1211.24 637.396 1212.5 636.004 1213.99 636.653Z" fill="#9B9B9B"/>
<path d="M1212.68 639.221C1213.42 639.545 1213.3 640.437 1213.14 640.842C1213.45 640.927 1214.06 641.298 1214.02 642.109C1213.98 642.92 1213.04 643.021 1212.58 642.971C1212.7 644.065 1211.73 644.406 1211.24 644.44C1209.92 644.4 1209.76 643.41 1209.85 642.92C1209.02 643.528 1208.47 643.106 1208.3 642.819C1207.89 641.805 1208.71 641.214 1209.18 641.045C1208.52 640.396 1208.9 639.761 1209.18 639.525C1210.17 638.714 1210.86 639.491 1211.08 639.981C1211.31 639.592 1211.94 638.896 1212.68 639.221Z" fill="white"/>
<g style="mix-blend-mode:multiply">
<path d="M1202.9 628.438C1199.08 630.135 1199.72 634.802 1200.52 636.923C1198.93 637.365 1195.8 639.31 1196.01 643.552C1196.22 647.795 1201.05 648.325 1203.43 648.06C1202.79 653.788 1207.76 655.573 1210.32 655.75C1217.1 655.538 1217.92 650.358 1217.47 647.795C1221.71 650.977 1224.54 648.767 1225.42 647.265C1227.54 641.961 1223.3 638.868 1220.92 637.984C1224.31 634.59 1222.33 631.266 1220.92 630.029C1215.83 625.786 1212.26 629.852 1211.11 632.415C1209.97 630.383 1206.72 626.741 1202.9 628.438Z" fill="#A209D8"/>
<path d="M1206.86 629.326C1203.7 630.72 1202.8 635.711 1203.46 637.454C1202.14 637.817 1199.54 639.415 1199.72 642.902C1199.89 646.388 1203.9 646.824 1205.88 646.606C1205.35 651.313 1208.98 652.25 1211.1 652.395C1215.87 652.13 1216.77 648.713 1216.4 646.606C1219.92 649.221 1223.41 647.187 1224.14 645.952C1225.9 641.594 1223.71 638.803 1221.73 638.076C1224.54 635.287 1222.58 631.529 1221.7 630.652C1217.99 626.939 1213.75 627.204 1211.1 632.243C1210.57 631.182 1208.98 628.393 1206.86 629.326Z" fill="#A209D8"/>
<path d="M1204.51 652.774L1209.8 643.606L1203.43 649.98C1203.4 649.713 1203.38 649.435 1203.38 649.146L1209.36 643.16L1200.94 648.023C1200.62 647.98 1200.3 647.922 1199.99 647.845L1209.04 642.613L1197.37 645.743L1197.21 645.135L1208.88 642.005L1196.79 642.005L1196.79 641.375L1208.88 641.375L1197.94 638.443C1198.13 638.261 1198.33 638.096 1198.53 637.946L1209.04 640.767L1200.14 635.622C1200.08 635.364 1200.04 635.093 1200 634.813L1209.36 640.221L1200.81 631.669L1200.83 631.651L1200.32 631.14C1200.4 630.931 1200.49 630.727 1200.6 630.529L1209.75 639.688L1203.76 629.302L1204.31 628.987L1210.35 639.461L1207.47 628.701C1207.74 628.849 1208 629.016 1208.25 629.196L1210.96 639.297L1210.96 632.146C1211.01 632.239 1211.07 632.329 1211.11 632.415C1211.24 632.131 1211.4 631.827 1211.59 631.519L1211.59 639.297L1214.41 628.732C1214.65 628.611 1214.89 628.507 1215.15 628.423L1212.19 639.46L1218.24 628.987L1218.78 629.302L1218.78 629.302L1212.74 639.775L1221.28 631.224L1221.29 631.224L1221.73 631.67L1213.18 640.221L1222.74 634.701C1222.7 634.979 1222.63 635.263 1222.53 635.552L1213.5 640.766L1222.01 638.485C1222.25 638.619 1222.5 638.77 1222.75 638.938L1213.66 641.375L1225.13 641.375C1225.25 641.577 1225.36 641.787 1225.46 642.005L1213.66 642.005L1225.34 645.135L1225.17 645.743L1213.5 642.613L1223.97 648.66L1223.89 648.791C1223.73 648.886 1223.56 648.975 1223.39 649.053L1213.27 643.209L1218.59 648.529C1218.23 648.326 1217.86 648.082 1217.47 647.795C1217.51 647.989 1217.53 648.199 1217.55 648.42L1212.74 643.604L1217.21 651.346C1217.12 651.596 1217.02 651.846 1216.91 652.091L1212.19 643.919L1215 654.384C1214.82 654.508 1214.64 654.625 1214.44 654.736L1211.59 644.082V655.645C1211.38 655.673 1211.17 655.697 1210.96 655.714L1210.96 644.082L1207.97 655.242C1207.77 655.172 1207.58 655.094 1207.38 655.007L1210.35 643.92L1204.94 653.297C1204.79 653.132 1204.65 652.958 1204.51 652.774Z" fill="#A209D8"/>
<path d="M1213.99 636.653C1215.47 637.301 1215.22 639.085 1214.91 639.896C1215.53 640.065 1216.75 640.808 1216.66 642.43C1216.58 644.051 1214.71 644.254 1213.78 644.153C1214.03 646.342 1212.1 647.024 1211.1 647.092C1208.47 647.011 1208.15 645.031 1208.32 644.051C1206.68 645.268 1205.58 644.423 1205.23 643.849C1204.41 641.822 1206.06 640.639 1206.98 640.301C1205.67 639.004 1206.43 637.734 1206.98 637.261C1208.96 635.639 1210.35 637.193 1210.79 638.173C1211.24 637.396 1212.5 636.004 1213.99 636.653Z" fill="#A209D8"/>
<path d="M1212.68 639.221C1213.42 639.545 1213.3 640.437 1213.14 640.842C1213.45 640.927 1214.06 641.298 1214.02 642.109C1213.98 642.92 1213.04 643.021 1212.58 642.971C1212.7 644.065 1211.73 644.406 1211.24 644.44C1209.92 644.4 1209.76 643.41 1209.85 642.92C1209.02 643.528 1208.47 643.106 1208.3 642.819C1207.89 641.805 1208.71 641.214 1209.18 641.045C1208.52 640.396 1208.9 639.761 1209.18 639.525C1210.17 638.714 1210.86 639.491 1211.08 639.981C1211.31 639.592 1211.94 638.896 1212.68 639.221Z" fill="#A209D8"/>
</g>
<g style="mix-blend-mode:soft-light">
<path d="M1202.9 628.438C1199.08 630.135 1199.72 634.802 1200.52 636.923C1198.93 637.365 1195.8 639.31 1196.01 643.552C1196.22 647.795 1201.05 648.325 1203.43 648.06C1202.79 653.788 1207.76 655.573 1210.32 655.75C1217.1 655.538 1217.92 650.358 1217.47 647.795C1221.71 650.977 1224.54 648.767 1225.42 647.265C1227.54 641.961 1223.3 638.868 1220.92 637.984C1224.31 634.59 1222.33 631.266 1220.92 630.029C1215.83 625.786 1212.26 629.852 1211.11 632.415C1209.97 630.383 1206.72 626.741 1202.9 628.438Z" fill="#A209D8"/>
<path d="M1206.86 629.326C1203.7 630.72 1202.8 635.711 1203.46 637.454C1202.14 637.817 1199.54 639.415 1199.72 642.902C1199.89 646.388 1203.9 646.824 1205.88 646.606C1205.35 651.313 1208.98 652.25 1211.1 652.395C1215.87 652.13 1216.77 648.713 1216.4 646.606C1219.92 649.221 1223.41 647.187 1224.14 645.952C1225.9 641.594 1223.71 638.803 1221.73 638.076C1224.54 635.287 1222.58 631.529 1221.7 630.652C1217.99 626.939 1213.75 627.204 1211.1 632.243C1210.57 631.182 1208.98 628.393 1206.86 629.326Z" fill="#A209D8"/>
<path d="M1204.51 652.774L1209.8 643.606L1203.43 649.98C1203.4 649.713 1203.38 649.435 1203.38 649.146L1209.36 643.16L1200.94 648.023C1200.62 647.98 1200.3 647.922 1199.99 647.845L1209.04 642.613L1197.37 645.743L1197.21 645.135L1208.88 642.005L1196.79 642.005L1196.79 641.375L1208.88 641.375L1197.94 638.443C1198.13 638.261 1198.33 638.096 1198.53 637.946L1209.04 640.767L1200.14 635.622C1200.08 635.364 1200.04 635.093 1200 634.813L1209.36 640.221L1200.81 631.669L1200.83 631.651L1200.32 631.14C1200.4 630.931 1200.49 630.727 1200.6 630.529L1209.75 639.688L1203.76 629.302L1204.31 628.987L1210.35 639.461L1207.47 628.701C1207.74 628.849 1208 629.016 1208.25 629.196L1210.96 639.297L1210.96 632.146C1211.01 632.239 1211.07 632.329 1211.11 632.415C1211.24 632.131 1211.4 631.827 1211.59 631.519L1211.59 639.297L1214.41 628.732C1214.65 628.611 1214.89 628.507 1215.15 628.423L1212.19 639.46L1218.24 628.987L1218.78 629.302L1218.78 629.302L1212.74 639.775L1221.28 631.224L1221.29 631.224L1221.73 631.67L1213.18 640.221L1222.74 634.701C1222.7 634.979 1222.63 635.263 1222.53 635.552L1213.5 640.766L1222.01 638.485C1222.25 638.619 1222.5 638.77 1222.75 638.938L1213.66 641.375L1225.13 641.375C1225.25 641.577 1225.36 641.787 1225.46 642.005L1213.66 642.005L1225.34 645.135L1225.17 645.743L1213.5 642.613L1223.97 648.66L1223.89 648.791C1223.73 648.886 1223.56 648.975 1223.39 649.053L1213.27 643.209L1218.59 648.529C1218.23 648.326 1217.86 648.082 1217.47 647.795C1217.51 647.989 1217.53 648.199 1217.55 648.42L1212.74 643.604L1217.21 651.346C1217.12 651.596 1217.02 651.846 1216.91 652.091L1212.19 643.919L1215 654.384C1214.82 654.508 1214.64 654.625 1214.44 654.736L1211.59 644.082V655.645C1211.38 655.673 1211.17 655.697 1210.96 655.714L1210.96 644.082L1207.97 655.242C1207.77 655.172 1207.58 655.094 1207.38 655.007L1210.35 643.92L1204.94 653.297C1204.79 653.132 1204.65 652.958 1204.51 652.774Z" fill="#A209D8"/>
<path d="M1213.99 636.653C1215.47 637.301 1215.22 639.085 1214.91 639.896C1215.53 640.065 1216.75 640.808 1216.66 642.43C1216.58 644.051 1214.71 644.254 1213.78 644.153C1214.03 646.342 1212.1 647.024 1211.1 647.092C1208.47 647.011 1208.15 645.031 1208.32 644.051C1206.68 645.268 1205.58 644.423 1205.23 643.849C1204.41 641.822 1206.06 640.639 1206.98 640.301C1205.67 639.004 1206.43 637.734 1206.98 637.261C1208.96 635.639 1210.35 637.193 1210.79 638.173C1211.24 637.396 1212.5 636.004 1213.99 636.653Z" fill="#A209D8"/>
<path d="M1212.68 639.221C1213.42 639.545 1213.3 640.437 1213.14 640.842C1213.45 640.927 1214.06 641.298 1214.02 642.109C1213.98 642.92 1213.04 643.021 1212.58 642.971C1212.7 644.065 1211.73 644.406 1211.24 644.44C1209.92 644.4 1209.76 643.41 1209.85 642.92C1209.02 643.528 1208.47 643.106 1208.3 642.819C1207.89 641.805 1208.71 641.214 1209.18 641.045C1208.52 640.396 1208.9 639.761 1209.18 639.525C1210.17 638.714 1210.86 639.491 1211.08 639.981C1211.31 639.592 1211.94 638.896 1212.68 639.221Z" fill="#A209D8"/>
</g>
<path d="M389.531 423.472C391.259 423.257 393.61 423.272 395.582 424.41C399.206 426.503 398.352 429.838 395.774 430.872C396.183 433.595 393.706 436.029 390.082 433.937C388.188 432.843 387.037 430.895 386.328 429.356L383.925 424.893C383.677 424.433 384.148 423.618 384.671 423.604L389.531 423.472Z" fill="#ECA9F5"/>
<path d="M387.288 428.478C388.337 429.867 389.5 431.91 389.5 434.187C389.5 438.372 386.184 439.3 384 437.585C381.847 439.3 378.5 438.372 378.5 434.187C378.5 432 379.611 430.029 380.59 428.646L383.253 424.333C383.528 423.888 384.469 423.889 384.743 424.334L387.288 428.478Z" fill="#ECA9F5"/>
<path d="M381.756 429.256C381.078 430.859 379.89 432.888 377.918 434.027C374.294 436.119 371.833 433.711 372.226 430.962C369.664 429.955 368.794 426.593 372.418 424.5C374.312 423.407 376.575 423.384 378.262 423.539L383.328 423.69C383.851 423.705 384.321 424.521 384.072 424.981L381.756 429.256Z" fill="#ECA9F5"/>
<path d="M378.469 424.778C376.741 424.993 374.39 424.978 372.418 423.84C368.794 421.747 369.648 418.412 372.226 417.378C371.817 414.655 374.294 412.221 377.918 414.313C379.812 415.407 380.963 417.355 381.672 418.894L384.075 423.357C384.323 423.817 383.852 424.632 383.329 424.646L378.469 424.778Z" fill="#ECA9F5"/>
<path d="M380.712 419.522C379.663 418.133 378.5 416.09 378.5 413.813C378.5 409.628 381.816 408.7 384 410.415C386.153 408.7 389.5 409.628 389.5 413.813C389.5 416 388.389 417.971 387.41 419.354L384.747 423.667C384.472 424.112 383.531 424.111 383.257 423.666L380.712 419.522Z" fill="#ECA9F5"/>
<path d="M386.244 418.994C386.922 417.391 388.11 415.362 390.082 414.223C393.706 412.131 396.167 414.539 395.774 417.288C398.336 418.295 399.206 421.657 395.582 423.75C393.688 424.843 391.425 424.866 389.738 424.711L384.672 424.56C384.149 424.545 383.679 423.729 383.928 423.269L386.244 418.994Z" fill="#ECA9F5"/>
<g style="mix-blend-mode:color-dodge">
<path d="M384 416.75L384.555 422.66L389.127 418.873L385.34 423.445L391.25 424L385.34 424.555L389.127 429.127L384.555 425.34L384 431.25L383.445 425.34L378.873 429.127L382.66 424.555L376.75 424L382.66 423.445L378.873 418.873L383.445 422.66L384 416.75Z" fill="#ECA9F5"/>
</g>
<g style="mix-blend-mode:multiply">
<circle cx="2.98529" cy="2.98529" r="2.98529" transform="matrix(-1 0 0 1 386.985 421.015)" fill="#ECA9F5"/>
</g>
<g style="mix-blend-mode:multiply">
<path d="M385.525 422.023C385.224 422.324 385.206 422.794 385.206 422.794C385.206 422.794 385.676 422.776 385.977 422.476C386.278 422.175 387.166 420.834 387.166 420.834C387.166 420.834 385.825 421.723 385.525 422.023Z" fill="#ECA9F5"/>
</g>
<g style="mix-blend-mode:multiply">
<path d="M386.165 422.757C385.772 422.92 385.576 423.347 385.576 423.347C385.576 423.347 386.017 423.511 386.41 423.348C386.803 423.185 388.137 422.287 388.137 422.287C388.137 422.287 386.558 422.594 386.165 422.757Z" fill="#ECA9F5"/>
</g>
<g style="mix-blend-mode:multiply">
<path d="M386.476 423.68C386.051 423.68 385.706 424 385.706 424C385.706 424 386.051 424.32 386.476 424.32C386.901 424.32 388.478 424 388.478 424C388.478 424 386.901 423.68 386.476 423.68Z" fill="#ECA9F5"/>
</g>
<g style="mix-blend-mode:multiply">
<path d="M386.41 424.652C386.017 424.489 385.576 424.653 385.576 424.653C385.576 424.653 385.772 425.08 386.165 425.243C386.558 425.406 388.137 425.714 388.137 425.714C388.137 425.714 386.803 424.815 386.41 424.652Z" fill="#ECA9F5"/>
</g>
<g style="mix-blend-mode:multiply">
<path d="M385.977 425.525C385.676 425.224 385.206 425.206 385.206 425.206C385.206 425.206 385.224 425.676 385.525 425.977C385.825 426.278 387.167 427.167 387.167 427.167C387.167 427.167 386.278 425.825 385.977 425.525Z" fill="#ECA9F5"/>
</g>
<g style="mix-blend-mode:multiply">
<path d="M385.243 426.165C385.08 425.772 384.653 425.576 384.653 425.576C384.653 425.576 384.489 426.017 384.652 426.41C384.815 426.803 385.713 428.137 385.713 428.137C385.713 428.137 385.406 426.558 385.243 426.165Z" fill="#ECA9F5"/>
</g>
<g style="mix-blend-mode:multiply">
<path d="M384.32 426.476C384.32 426.051 384 425.706 384 425.706C384 425.706 383.68 426.051 383.68 426.476C383.68 426.901 384 428.478 384 428.478C384 428.478 384.32 426.901 384.32 426.476Z" fill="#ECA9F5"/>
</g>
<g style="mix-blend-mode:multiply">
<path d="M383.348 426.41C383.511 426.017 383.347 425.576 383.347 425.576C383.347 425.576 382.92 425.772 382.757 426.165C382.594 426.558 382.286 428.137 382.286 428.137C382.286 428.137 383.185 426.803 383.348 426.41Z" fill="#ECA9F5"/>
</g>
<g style="mix-blend-mode:multiply">
<path d="M382.475 425.977C382.776 425.676 382.794 425.206 382.794 425.206C382.794 425.206 382.324 425.224 382.023 425.525C381.722 425.825 380.834 427.166 380.834 427.166C380.834 427.166 382.175 426.278 382.475 425.977Z" fill="#ECA9F5"/>
</g>
<g style="mix-blend-mode:multiply">
<path d="M381.835 425.243C382.228 425.08 382.424 424.653 382.424 424.653C382.424 424.653 381.983 424.489 381.59 424.652C381.197 424.815 379.863 425.714 379.863 425.714C379.863 425.714 381.442 425.406 381.835 425.243Z" fill="#ECA9F5"/>
</g>
<g style="mix-blend-mode:multiply">
<path d="M381.524 424.32C381.949 424.32 382.294 424 382.294 424C382.294 424 381.949 423.68 381.524 423.68C381.099 423.68 379.522 424 379.522 424C379.522 424 381.099 424.32 381.524 424.32Z" fill="#ECA9F5"/>
</g>
<g style="mix-blend-mode:multiply">
<path d="M381.59 423.348C381.983 423.511 382.424 423.347 382.424 423.347C382.424 423.347 382.228 422.92 381.835 422.757C381.442 422.594 379.863 422.286 379.863 422.286C379.863 422.286 381.197 423.185 381.59 423.348Z" fill="#ECA9F5"/>
</g>
<g style="mix-blend-mode:multiply">
<path d="M382.023 422.476C382.324 422.776 382.794 422.794 382.794 422.794C382.794 422.794 382.776 422.324 382.475 422.023C382.175 421.722 380.833 420.834 380.833 420.834C380.833 420.834 381.722 422.175 382.023 422.476Z" fill="#ECA9F5"/>
</g>
<g style="mix-blend-mode:multiply">
<path d="M382.757 421.835C382.92 422.228 383.347 422.424 383.347 422.424C383.347 422.424 383.511 421.983 383.348 421.59C383.185 421.197 382.287 419.863 382.287 419.863C382.287 419.863 382.594 421.442 382.757 421.835Z" fill="#ECA9F5"/>
</g>
<g style="mix-blend-mode:multiply">
<path d="M383.68 421.524C383.68 421.949 384 422.294 384 422.294C384 422.294 384.32 421.949 384.32 421.524C384.32 421.099 384 419.522 384 419.522C384 419.522 383.68 421.099 383.68 421.524Z" fill="#ECA9F5"/>
</g>
<g style="mix-blend-mode:multiply">
<path d="M384.652 421.59C384.489 421.983 384.653 422.424 384.653 422.424C384.653 422.424 385.08 422.228 385.243 421.835C385.406 421.442 385.714 419.863 385.714 419.863C385.714 419.863 384.815 421.197 384.652 421.59Z" fill="#ECA9F5"/>
</g>
<rect width="1280" height="900" fill="#AD88C6" fill-opacity="0.53"/>
</svg>
