<svg width="264" height="90" viewBox="0 0 264 90" fill="none" xmlns="http://www.w3.org/2000/svg">
<rect x="3" y="13" width="260" height="63" rx="31.5" fill="#7469B6"/>
<path d="M92.0921 16.9683C93.0807 17.5995 93.914 18.7106 94.44 20.0934C95.2147 22.1298 94.249 23.5671 92.4548 24.2497C90.5855 24.9608 88.9837 24.5003 88.209 22.4639C87.6819 21.0782 87.588 19.6848 87.8641 18.5767L88.4846 15.2135C88.5486 14.8664 89.1353 14.6437 89.4131 14.861L92.0921 16.9683Z" fill="#E27FF0"/>
<path d="M86.8359 18.0923C86.2047 19.0809 85.0936 19.9142 83.7108 20.4402C81.6744 21.2149 80.2371 20.2492 79.5545 18.455C78.8434 16.5857 79.3039 14.9839 81.3403 14.2092C82.726 13.6821 84.1194 13.5882 85.2275 13.8642L88.5907 14.4848C88.9378 14.5488 89.1605 15.1355 88.9432 15.4133L86.8359 18.0923Z" fill="#E27FF0"/>
<path d="M85.7121 12.836C84.7235 12.2048 83.8902 11.0937 83.3642 9.7109C82.5895 7.67452 83.5552 6.23721 85.3494 5.55464C87.2187 4.84351 88.8205 5.30407 89.5952 7.34045C90.1223 8.72608 90.2162 10.1195 89.9401 11.2276L89.3196 14.5908C89.2556 14.9379 88.6689 15.1606 88.3911 14.9433L85.7121 12.836Z" fill="#E27FF0"/>
<path d="M90.9683 11.712C91.5995 10.7234 92.7106 9.89009 94.0934 9.36403C96.1298 8.58933 97.5671 9.55505 98.2497 11.3493C98.9608 13.2186 98.5003 14.8203 96.4639 15.595C95.0782 16.1222 93.6848 16.2161 92.5767 15.94L89.2135 15.3195C88.8664 15.2555 88.6437 14.6688 88.861 14.391L90.9683 11.712Z" fill="#E27FF0"/>
<path d="M87.4681 12.3207C87.3454 11.832 88.0242 11.5738 88.2573 12.0205L88.5959 12.6693C88.7497 12.9639 89.1669 12.9761 89.3375 12.691L89.7134 12.063C89.9722 11.6307 90.6348 11.928 90.4837 12.4087L90.2644 13.1069C90.1648 13.424 90.4512 13.7276 90.7735 13.6467L91.4833 13.4684C91.972 13.3457 92.2302 14.0245 91.7835 14.2576L91.1347 14.5962C90.8401 14.7499 90.8279 15.1671 91.1131 15.3378L91.741 15.7137C92.1734 15.9724 91.876 16.635 91.3953 16.484L90.6971 16.2646C90.38 16.165 90.0764 16.4514 90.1574 16.7738L90.3356 17.4836C90.4583 17.9723 89.7796 18.2305 89.5464 17.7838L89.2078 17.135C89.0541 16.8403 88.6369 16.8282 88.4662 17.1133L88.0903 17.7413C87.8316 18.1736 87.169 17.8762 87.32 17.3956L87.5394 16.6973C87.639 16.3803 87.3526 16.0767 87.0303 16.1576L86.3204 16.3359C85.8318 16.4586 85.5735 15.7798 86.0202 15.5467L86.669 15.2081C86.9637 15.0543 86.9759 14.6372 86.6907 14.4665L86.0627 14.0906C85.6304 13.8318 85.9278 13.1693 86.4085 13.3203L87.1067 13.5396C87.4237 13.6393 87.7273 13.3529 87.6464 13.0305L87.4681 12.3207Z" fill="#E27FF0"/>
<g style="mix-blend-mode:multiply">
<path fill-rule="evenodd" clip-rule="evenodd" d="M84.1992 16.6021L93.5457 13.0464L93.6049 13.2022L84.2584 16.7579L84.1992 16.6021Z" fill="#E27FF0"/>
<path d="M93.7641 13.8549C93.377 14.0022 92.9437 13.8078 92.7964 13.4206C92.6492 13.0335 92.8436 12.6002 93.2307 12.4529C93.6179 12.3057 94.0511 12.5001 94.1984 12.8873C94.3457 13.2744 94.1512 13.7076 93.7641 13.8549Z" fill="#E27FF0"/>
<path d="M84.5734 17.3513C84.1862 17.4986 83.753 17.3042 83.6057 16.917C83.4584 16.5299 83.6529 16.0966 84.04 15.9494C84.4272 15.8021 84.8604 15.9965 85.0077 16.3837C85.155 16.7708 84.9605 17.2041 84.5734 17.3513Z" fill="#E27FF0"/>
<path fill-rule="evenodd" clip-rule="evenodd" d="M84.3746 12.7787L93.4978 16.8735L93.4295 17.0255L84.3063 12.9308L84.3746 12.7787Z" fill="#E27FF0"/>
<path d="M93.0805 17.5996C92.7026 17.43 92.5338 16.9862 92.7034 16.6083C92.873 16.2304 93.3168 16.0615 93.6947 16.2311C94.0726 16.4007 94.2415 16.8446 94.0719 17.2225C93.9023 17.6004 93.4584 17.7692 93.0805 17.5996Z" fill="#E27FF0"/>
<path d="M84.1094 13.5731C83.7315 13.4035 83.5626 12.9597 83.7322 12.5818C83.9018 12.2039 84.3457 12.035 84.7236 12.2046C85.1015 12.3743 85.2703 12.8181 85.1007 13.196C84.9311 13.5739 84.4873 13.7427 84.1094 13.5731Z" fill="#E27FF0"/>
<path fill-rule="evenodd" clip-rule="evenodd" d="M87.2021 10.1993L90.7578 19.5458L90.602 19.605L87.0463 10.2585L87.2021 10.1993Z" fill="#E27FF0"/>
<path d="M89.9493 19.7642C89.802 19.377 89.9964 18.9438 90.3836 18.7965C90.7707 18.6492 91.204 18.8437 91.3512 19.2308C91.4985 19.618 91.3041 20.0512 90.9169 20.1985C90.5298 20.3458 90.0966 20.1513 89.9493 19.7642Z" fill="#E27FF0"/>
<path d="M86.4529 10.5734C86.3056 10.1863 86.5 9.75307 86.8872 9.60579C87.2743 9.4585 87.7076 9.65295 87.8548 10.0401C88.0021 10.4272 87.8077 10.8605 87.4205 11.0078C87.0334 11.155 86.6001 10.9606 86.4529 10.5734Z" fill="#E27FF0"/>
<path fill-rule="evenodd" clip-rule="evenodd" d="M91.0255 10.3747L86.9307 19.4979L86.7787 19.4296L90.8734 10.3064L91.0255 10.3747Z" fill="#E27FF0"/>
<path d="M86.2046 19.0806C86.3742 18.7027 86.818 18.5339 87.1959 18.7035C87.5738 18.8731 87.7427 19.3169 87.5731 19.6948C87.4034 20.0727 86.9596 20.2416 86.5817 20.072C86.2038 19.9024 86.035 19.4585 86.2046 19.0806Z" fill="#E27FF0"/>
<path d="M90.2311 10.1095C90.4007 9.73156 90.8445 9.56271 91.2224 9.73232C91.6003 9.90193 91.7692 10.3458 91.5995 10.7237C91.4299 11.1016 90.9861 11.2704 90.6082 11.1008C90.2303 10.9312 90.0615 10.4873 90.2311 10.1095Z" fill="#E27FF0"/>
<path fill-rule="evenodd" clip-rule="evenodd" d="M93.6049 13.2022L84.2584 16.7579L84.1992 16.6021L93.5457 13.0464L93.6049 13.2022Z" fill="#E27FF0"/>
<path d="M84.04 15.9494C84.4272 15.8021 84.8604 15.9965 85.0077 16.3837C85.155 16.7708 84.9605 17.2041 84.5734 17.3513C84.1862 17.4986 83.753 17.3042 83.6057 16.917C83.4584 16.5299 83.6529 16.0966 84.04 15.9494Z" fill="#E27FF0"/>
<path d="M93.2307 12.4529C93.6179 12.3057 94.0511 12.5001 94.1984 12.8873C94.3457 13.2744 94.1512 13.7076 93.7641 13.8549C93.377 14.0022 92.9437 13.8078 92.7964 13.4206C92.6492 13.0335 92.8436 12.6002 93.2307 12.4529Z" fill="#E27FF0"/>
<path fill-rule="evenodd" clip-rule="evenodd" d="M93.4295 17.0255L84.3063 12.9308L84.3746 12.7787L93.4978 16.8735L93.4295 17.0255Z" fill="#E27FF0"/>
<path d="M84.7236 12.2046C85.1015 12.3743 85.2703 12.8181 85.1007 13.196C84.9311 13.5739 84.4873 13.7427 84.1094 13.5731C83.7315 13.4035 83.5626 12.9597 83.7322 12.5818C83.9018 12.2039 84.3457 12.035 84.7236 12.2046Z" fill="#E27FF0"/>
<path d="M93.6947 16.2311C94.0726 16.4007 94.2415 16.8446 94.0719 17.2225C93.9023 17.6004 93.4584 17.7692 93.0805 17.5996C92.7026 17.43 92.5338 16.9862 92.7034 16.6083C92.873 16.2304 93.3168 16.0615 93.6947 16.2311Z" fill="#E27FF0"/>
<path fill-rule="evenodd" clip-rule="evenodd" d="M90.602 19.605L87.0463 10.2585L87.2021 10.1993L90.7578 19.5458L90.602 19.605Z" fill="#E27FF0"/>
<path d="M87.8548 10.0401C88.0021 10.4272 87.8077 10.8605 87.4205 11.0078C87.0334 11.155 86.6001 10.9606 86.4529 10.5734C86.3056 10.1863 86.5 9.75307 86.8872 9.60579C87.2743 9.4585 87.7076 9.65295 87.8548 10.0401Z" fill="#E27FF0"/>
<path d="M91.3512 19.2308C91.4985 19.618 91.3041 20.0512 90.9169 20.1985C90.5298 20.3458 90.0966 20.1513 89.9493 19.7642C89.802 19.377 89.9964 18.9438 90.3836 18.7965C90.7707 18.6492 91.204 18.8437 91.3512 19.2308Z" fill="#E27FF0"/>
<path fill-rule="evenodd" clip-rule="evenodd" d="M86.7787 19.4296L90.8734 10.3064L91.0255 10.3747L86.9307 19.4979L86.7787 19.4296Z" fill="#E27FF0"/>
<path d="M91.5995 10.7237C91.4299 11.1016 90.9861 11.2704 90.6082 11.1008C90.2303 10.9312 90.0615 10.4873 90.2311 10.1095C90.4007 9.73156 90.8445 9.56271 91.2224 9.73232C91.6003 9.90193 91.7692 10.3458 91.5995 10.7237Z" fill="#E27FF0"/>
<path d="M87.5731 19.6948C87.4034 20.0727 86.9596 20.2416 86.5817 20.072C86.2038 19.9024 86.035 19.4585 86.2046 19.0806C86.3742 18.7027 86.818 18.5339 87.1959 18.7035C87.5738 18.8731 87.7427 19.3169 87.5731 19.6948Z" fill="#E27FF0"/>
</g>
<path d="M44.708 47.4317C44.708 50.5683 43.7568 53.0492 41.8543 54.8746C39.9775 56.7 37.3423 57.6126 33.9487 57.6126C32.3033 57.6126 30.8507 57.407 29.5909 56.9956C28.3569 56.5843 27.1228 55.9544 25.8888 55.106L28.2797 51.211C29.2053 51.828 30.0665 52.2651 30.8635 52.5222C31.6605 52.7793 32.5732 52.9078 33.6016 52.9078C35.0156 52.9078 36.1597 52.4579 37.0338 51.5581C37.9336 50.6325 38.3835 49.2699 38.3835 47.4703V34.9369H30.2079V30.3093H44.708V47.4317ZM59.0774 35.8625C62.1882 35.8625 64.6178 36.8523 66.366 38.8319C68.14 40.7858 69.0269 43.4211 69.0269 46.7376C69.0269 50.1826 68.1528 52.8693 66.4046 54.7975C64.6563 56.7257 62.2139 57.6898 59.0774 57.6898C55.9408 57.6898 53.4985 56.7385 51.7502 54.836C50.002 52.9078 49.1279 50.2212 49.1279 46.7761C49.1279 44.5908 49.5135 42.6883 50.2848 41.0686C51.0818 39.4232 52.2258 38.1506 53.717 37.2508C55.2338 36.3253 57.0206 35.8625 59.0774 35.8625ZM59.0774 40.3745C57.8176 40.3745 56.8921 40.8887 56.3008 41.9171C55.7095 42.9197 55.4138 44.5394 55.4138 46.7761C55.4138 49.0386 55.7095 50.684 56.3008 51.7123C56.8921 52.715 57.8176 53.2163 59.0774 53.2163C60.3372 53.2163 61.2627 52.7021 61.854 51.6738C62.4453 50.6454 62.741 49 62.741 46.7376C62.741 44.5266 62.4453 42.9197 61.854 41.9171C61.2627 40.8887 60.3372 40.3745 59.0774 40.3745ZM85.8644 57.0342C84.9388 59.7851 83.5634 61.8547 81.738 63.243C79.9127 64.657 77.4703 65.454 74.4108 65.634L73.7167 61.3148C75.6706 61.0577 77.1103 60.6206 78.0359 60.0036C78.9871 59.3866 79.7455 58.3968 80.3112 57.0342H78.1901L71.7114 36.5566H78.1516L82.1237 53.1392L86.4428 36.5566H92.6902L85.8644 57.0342ZM118.198 45.7735H111.72V57.0342H105.395V30.3093H111.72V40.5673H118.198V30.3093H124.523V57.0342H118.198V45.7735ZM146.451 51.1339C146.451 51.8794 146.554 52.4322 146.759 52.7921C146.965 53.1521 147.312 53.422 147.8 53.602L146.528 57.6126C145.294 57.4841 144.265 57.2141 143.443 56.8028C142.62 56.3657 141.977 55.7359 141.515 54.9132C140.743 55.813 139.766 56.5071 138.584 56.9956C137.401 57.4584 136.141 57.6898 134.804 57.6898C132.696 57.6898 131.012 57.0985 129.752 55.9158C128.493 54.7075 127.863 53.1521 127.863 51.2496C127.863 49.0386 128.737 47.3289 130.485 46.1205C132.233 44.8865 134.689 44.2695 137.851 44.2695H140.589V43.5367C140.589 41.4286 139.239 40.3745 136.54 40.3745C135.846 40.3745 134.972 40.4773 133.917 40.683C132.889 40.863 131.886 41.1201 130.909 41.4543L129.521 37.4051C130.832 36.9166 132.195 36.5438 133.609 36.2867C135.049 36.0039 136.347 35.8625 137.504 35.8625C143.468 35.8625 146.451 38.2792 146.451 43.1125V51.1339ZM136.887 53.332C137.581 53.332 138.275 53.1392 138.969 52.7536C139.689 52.3422 140.229 51.7895 140.589 51.0953V47.7402H139.085C135.794 47.7402 134.149 48.7686 134.149 50.8254C134.149 51.6224 134.38 52.2394 134.843 52.6764C135.331 53.1135 136.013 53.332 136.887 53.332ZM170.075 28.4196V57.0342H164.677L164.368 54.7975C163.751 55.6716 162.967 56.3786 162.016 56.9185C161.064 57.4327 159.959 57.6898 158.699 57.6898C156.231 57.6898 154.354 56.7128 153.069 54.7589C151.809 52.805 151.179 50.1312 151.179 46.7376C151.179 44.6294 151.513 42.7526 152.182 41.1072C152.85 39.4618 153.801 38.1763 155.035 37.2508C156.27 36.3253 157.709 35.8625 159.355 35.8625C161.206 35.8625 162.748 36.5052 163.982 37.7907V27.764L170.075 28.4196ZM160.974 40.3359C159.869 40.3359 159.008 40.863 158.391 41.9171C157.774 42.9454 157.465 44.5651 157.465 46.7761C157.465 49.1414 157.735 50.8125 158.275 51.7895C158.84 52.7407 159.625 53.2163 160.627 53.2163C161.913 53.2163 163.031 52.4322 163.982 50.8639V42.0327C163.545 41.4671 163.083 41.0429 162.594 40.7601C162.131 40.4773 161.591 40.3359 160.974 40.3359ZM193.199 28.4196V57.0342H187.8L187.491 54.7975C186.874 55.6716 186.09 56.3786 185.139 56.9185C184.188 57.4327 183.082 57.6898 181.822 57.6898C179.354 57.6898 177.478 56.7128 176.192 54.7589C174.932 52.805 174.302 50.1312 174.302 46.7376C174.302 44.6294 174.637 42.7526 175.305 41.1072C175.974 39.4618 176.925 38.1763 178.159 37.2508C179.393 36.3253 180.833 35.8625 182.478 35.8625C184.329 35.8625 185.872 36.5052 187.106 37.7907V27.764L193.199 28.4196ZM184.098 40.3359C182.992 40.3359 182.131 40.863 181.514 41.9171C180.897 42.9454 180.588 44.5651 180.588 46.7761C180.588 49.1414 180.858 50.8125 181.398 51.7895C181.964 52.7407 182.748 53.2163 183.751 53.2163C185.036 53.2163 186.155 52.4322 187.106 50.8639V42.0327C186.669 41.4671 186.206 41.0429 185.717 40.7601C185.255 40.4773 184.715 40.3359 184.098 40.3359ZM215.821 51.1339C215.821 51.8794 215.924 52.4322 216.129 52.7921C216.335 53.1521 216.682 53.422 217.171 53.602L215.898 57.6126C214.664 57.4841 213.636 57.2141 212.813 56.8028C211.99 56.3657 211.348 55.7359 210.885 54.9132C210.113 55.813 209.136 56.5071 207.954 56.9956C206.771 57.4584 205.511 57.6898 204.175 57.6898C202.066 57.6898 200.382 57.0985 199.123 55.9158C197.863 54.7075 197.233 53.1521 197.233 51.2496C197.233 49.0386 198.107 47.3289 199.855 46.1205C201.604 44.8865 204.059 44.2695 207.221 44.2695H209.959V43.5367C209.959 41.4286 208.609 40.3745 205.91 40.3745C205.216 40.3745 204.342 40.4773 203.288 40.683C202.259 40.863 201.257 41.1201 200.28 41.4543L198.891 37.4051C200.202 36.9166 201.565 36.5438 202.979 36.2867C204.419 36.0039 205.717 35.8625 206.874 35.8625C212.839 35.8625 215.821 38.2792 215.821 43.1125V51.1339ZM206.257 53.332C206.951 53.332 207.645 53.1392 208.34 52.7536C209.059 52.3422 209.599 51.7895 209.959 51.0953V47.7402H208.455C205.164 47.7402 203.519 48.7686 203.519 50.8254C203.519 51.6224 203.75 52.2394 204.213 52.6764C204.702 53.1135 205.383 53.332 206.257 53.332ZM239.446 28.4196V57.0342H234.047L233.738 54.7975C233.121 55.6716 232.337 56.3786 231.386 56.9185C230.435 57.4327 229.329 57.6898 228.069 57.6898C225.601 57.6898 223.724 56.7128 222.439 54.7589C221.179 52.805 220.549 50.1312 220.549 46.7376C220.549 44.6294 220.883 42.7526 221.552 41.1072C222.22 39.4618 223.172 38.1763 224.406 37.2508C225.64 36.3253 227.079 35.8625 228.725 35.8625C230.576 35.8625 232.118 36.5052 233.353 37.7907V27.764L239.446 28.4196ZM230.345 40.3359C229.239 40.3359 228.378 40.863 227.761 41.9171C227.144 42.9454 226.835 44.5651 226.835 46.7761C226.835 49.1414 227.105 50.8125 227.645 51.7895C228.211 52.7407 228.995 53.2163 229.997 53.2163C231.283 53.2163 232.401 52.4322 233.353 50.8639V42.0327C232.915 41.4671 232.453 41.0429 231.964 40.7601C231.501 40.4773 230.962 40.3359 230.345 40.3359Z" fill="#FFE6E6"/>
<path d="M53.6619 70C50.702 70 51.4694 74.6496 52.2231 76.9744C50.4416 75.4017 47.4954 72.1538 45.2343 74.8205C43.9188 76.8718 49.0713 78.8889 51.812 79.641C44.1654 80.2154 44.3093 83.2308 45.3371 84.6667C47.7215 87.3744 51.1953 83.7436 52.6342 81.5897C51.4008 84.4957 49.6537 89.4872 53.3536 90C56.848 89.8974 56.1971 84.6325 55.4091 82.1026C57.4304 83.7778 61.7812 85.3846 63.1173 83.0256C64.4328 79.7436 59.4174 79.6752 56.7452 80.0513C59.109 79.3675 62.9117 76.9744 61.884 74.8205C60.5987 72.127 56.3683 75.4017 54.5869 77.2821C55.5119 74.8547 56.6219 70 53.6619 70Z" fill="white"/>
<path fill-rule="evenodd" clip-rule="evenodd" d="M53.9403 71.4659C53.9804 71.506 53.9804 71.5709 53.9403 71.611C53.898 71.6532 53.8511 71.744 53.8072 71.8942C53.7644 72.0404 53.7284 72.2286 53.6987 72.4504C53.6394 72.8938 53.6068 73.4607 53.5927 74.0716C53.5645 75.2928 53.6106 76.6797 53.6619 77.5839C53.6651 77.6405 53.6218 77.6889 53.5651 77.6921C53.5084 77.6953 53.4599 77.6521 53.4567 77.5955C53.4052 76.6878 53.3588 75.2952 53.3872 74.0669C53.4013 73.453 53.4342 72.8775 53.495 72.4233C53.5254 72.1963 53.563 71.9968 53.6098 71.8368C53.6554 71.6808 53.7139 71.5468 53.7949 71.4659C53.8351 71.4259 53.9001 71.4259 53.9403 71.4659ZM49.1156 76.4117C50.0467 76.8978 50.8805 77.5076 51.3651 77.9221C51.4082 77.959 51.4132 78.0237 51.3763 78.0667C51.3393 78.1097 51.2744 78.1147 51.2313 78.0779C50.7568 77.6719 49.9358 77.0714 49.0204 76.5934C48.1014 76.1136 47.1045 75.7666 46.272 75.8457C46.2155 75.851 46.1653 75.8097 46.1599 75.7533C46.1545 75.6969 46.196 75.6468 46.2525 75.6415C47.1466 75.5565 48.1881 75.9274 49.1156 76.4117ZM60.853 75.7177C60.8674 75.7725 60.8344 75.8285 60.7795 75.8428C59.8505 76.0847 58.7569 76.6755 57.7624 77.3218C56.7697 77.9669 55.8844 78.6615 55.3738 79.1031C55.3309 79.1402 55.266 79.1356 55.2288 79.0928C55.1916 79.05 55.1963 78.9852 55.2392 78.9481C55.7563 78.5009 56.649 77.8006 57.6502 77.1499C58.6495 76.5005 59.7656 75.8948 60.7276 75.6443C60.7826 75.63 60.8387 75.6629 60.853 75.7177ZM51.3965 80.8416C51.4132 80.8958 51.3827 80.9532 51.3285 80.9698C50.6657 81.1733 49.6187 81.5709 48.6364 82.1005C47.6492 82.6327 46.7478 83.2877 46.3521 83.9985C46.3245 84.048 46.2619 84.0659 46.2123 84.0384C46.1627 84.0109 46.1448 83.9484 46.1724 83.8989C46.5989 83.1328 47.5474 82.4545 48.5387 81.92C49.5348 81.383 50.5946 80.9805 51.268 80.7738C51.3223 80.7571 51.3798 80.7875 51.3965 80.8416ZM56.0337 81.243C56.0553 81.1906 56.1153 81.1656 56.1678 81.1872C56.7435 81.4237 57.7434 81.7446 58.8643 81.9348C59.9866 82.1251 61.2202 82.1826 62.2685 81.9009C62.3233 81.8862 62.3797 81.9186 62.3945 81.9733C62.4092 82.028 62.3768 82.0843 62.322 82.099C61.2325 82.3917 59.9652 82.3296 58.8299 82.137C57.6932 81.9442 56.6787 81.619 56.0896 81.3769C56.0371 81.3553 56.012 81.2954 56.0337 81.243ZM53.8587 82.5132C53.9152 82.5083 53.9651 82.5501 53.97 82.6065C54.0388 83.3966 54.0905 84.6529 54.0216 85.8571C53.9872 86.4592 53.9225 87.0506 53.814 87.5653C53.706 88.0777 53.5526 88.5243 53.3346 88.8288C53.3016 88.8749 53.2374 88.8856 53.1912 88.8527C53.145 88.8198 53.1343 88.7557 53.1673 88.7096C53.3605 88.4398 53.5068 88.0265 53.6129 87.5231C53.7185 87.022 53.7823 86.4416 53.8164 85.8454C53.8846 84.6531 53.8334 83.4068 53.7652 82.6243C53.7603 82.5678 53.8022 82.5181 53.8587 82.5132Z" fill="#CDCDCD"/>
<ellipse cx="53.7748" cy="79.5385" rx="1.13053" ry="1.1282" fill="#CDCDCD"/>
<ellipse cx="53.7749" cy="79.5385" rx="0.513879" ry="0.51282" fill="#9B9B9B"/>
<g style="mix-blend-mode:multiply">
<path d="M53.6619 70C50.702 70 51.4694 74.6496 52.2231 76.9744C50.4416 75.4017 47.4954 72.1538 45.2343 74.8205C43.9188 76.8718 49.0713 78.8889 51.812 79.641C44.1654 80.2154 44.3093 83.2308 45.3371 84.6667C47.7215 87.3744 51.1953 83.7436 52.6342 81.5897C51.4008 84.4957 49.6537 89.4872 53.3536 90C56.848 89.8974 56.1971 84.6325 55.4091 82.1026C57.4304 83.7778 61.7812 85.3846 63.1173 83.0256C64.4328 79.7436 59.4174 79.6752 56.7452 80.0513C59.109 79.3675 62.9117 76.9744 61.884 74.8205C60.5987 72.127 56.3683 75.4017 54.5869 77.2821C55.5119 74.8547 56.6219 70 53.6619 70Z" fill="#E1AFD1"/>
<path fill-rule="evenodd" clip-rule="evenodd" d="M53.9403 71.4659C53.9804 71.506 53.9804 71.5709 53.9403 71.611C53.898 71.6532 53.8511 71.744 53.8072 71.8942C53.7644 72.0404 53.7284 72.2286 53.6987 72.4504C53.6394 72.8938 53.6068 73.4607 53.5927 74.0716C53.5645 75.2928 53.6106 76.6797 53.6619 77.5839C53.6651 77.6405 53.6218 77.6889 53.5651 77.6921C53.5084 77.6953 53.4599 77.6521 53.4567 77.5955C53.4052 76.6878 53.3588 75.2952 53.3872 74.0669C53.4013 73.453 53.4342 72.8775 53.495 72.4233C53.5254 72.1963 53.563 71.9968 53.6098 71.8368C53.6554 71.6808 53.7139 71.5468 53.7949 71.4659C53.8351 71.4259 53.9001 71.4259 53.9403 71.4659ZM49.1156 76.4117C50.0467 76.8978 50.8805 77.5076 51.3651 77.9221C51.4082 77.959 51.4132 78.0237 51.3763 78.0667C51.3393 78.1097 51.2744 78.1147 51.2313 78.0779C50.7568 77.6719 49.9358 77.0714 49.0204 76.5934C48.1014 76.1136 47.1045 75.7666 46.272 75.8457C46.2155 75.851 46.1653 75.8097 46.1599 75.7533C46.1545 75.6969 46.196 75.6468 46.2525 75.6415C47.1466 75.5565 48.1881 75.9274 49.1156 76.4117ZM60.853 75.7177C60.8674 75.7725 60.8344 75.8285 60.7795 75.8428C59.8505 76.0847 58.7569 76.6755 57.7624 77.3218C56.7697 77.9669 55.8844 78.6615 55.3738 79.1031C55.3309 79.1402 55.266 79.1356 55.2288 79.0928C55.1916 79.05 55.1963 78.9852 55.2392 78.9481C55.7563 78.5009 56.649 77.8006 57.6502 77.1499C58.6495 76.5005 59.7656 75.8948 60.7276 75.6443C60.7826 75.63 60.8387 75.6629 60.853 75.7177ZM51.3965 80.8416C51.4132 80.8958 51.3827 80.9532 51.3285 80.9698C50.6657 81.1733 49.6187 81.5709 48.6364 82.1005C47.6492 82.6327 46.7478 83.2877 46.3521 83.9985C46.3245 84.048 46.2619 84.0659 46.2123 84.0384C46.1627 84.0109 46.1448 83.9484 46.1724 83.8989C46.5989 83.1328 47.5474 82.4545 48.5387 81.92C49.5348 81.383 50.5946 80.9805 51.268 80.7738C51.3223 80.7571 51.3798 80.7875 51.3965 80.8416ZM56.0337 81.243C56.0553 81.1906 56.1153 81.1656 56.1678 81.1872C56.7435 81.4237 57.7434 81.7446 58.8643 81.9348C59.9866 82.1251 61.2202 82.1826 62.2685 81.9009C62.3233 81.8862 62.3797 81.9186 62.3945 81.9733C62.4092 82.028 62.3768 82.0843 62.322 82.099C61.2325 82.3917 59.9652 82.3296 58.8299 82.137C57.6932 81.9442 56.6787 81.619 56.0896 81.3769C56.0371 81.3553 56.012 81.2954 56.0337 81.243ZM53.8587 82.5132C53.9152 82.5083 53.9651 82.5501 53.97 82.6065C54.0388 83.3966 54.0905 84.6529 54.0216 85.8571C53.9872 86.4592 53.9225 87.0506 53.814 87.5653C53.706 88.0777 53.5526 88.5243 53.3346 88.8288C53.3016 88.8749 53.2374 88.8856 53.1912 88.8527C53.145 88.8198 53.1343 88.7557 53.1673 88.7096C53.3605 88.4398 53.5068 88.0265 53.6129 87.5231C53.7185 87.022 53.7823 86.4416 53.8164 85.8454C53.8846 84.6531 53.8334 83.4068 53.7652 82.6243C53.7603 82.5678 53.8022 82.5181 53.8587 82.5132Z" fill="#E1AFD1"/>
<ellipse cx="53.7748" cy="79.5385" rx="1.13053" ry="1.1282" fill="#E1AFD1"/>
<ellipse cx="53.7749" cy="79.5385" rx="0.513879" ry="0.51282" fill="#E1AFD1"/>
</g>
<g style="mix-blend-mode:soft-light">
<path d="M53.6619 70C50.702 70 51.4694 74.6496 52.2231 76.9744C50.4416 75.4017 47.4954 72.1538 45.2343 74.8205C43.9188 76.8718 49.0713 78.8889 51.812 79.641C44.1654 80.2154 44.3093 83.2308 45.3371 84.6667C47.7215 87.3744 51.1953 83.7436 52.6342 81.5897C51.4008 84.4957 49.6537 89.4872 53.3536 90C56.848 89.8974 56.1971 84.6325 55.4091 82.1026C57.4304 83.7778 61.7812 85.3846 63.1173 83.0256C64.4328 79.7436 59.4174 79.6752 56.7452 80.0513C59.109 79.3675 62.9117 76.9744 61.884 74.8205C60.5987 72.127 56.3683 75.4017 54.5869 77.2821C55.5119 74.8547 56.6219 70 53.6619 70Z" fill="#E1AFD1"/>
<path fill-rule="evenodd" clip-rule="evenodd" d="M53.9403 71.4659C53.9804 71.506 53.9804 71.5709 53.9403 71.611C53.898 71.6532 53.8511 71.744 53.8072 71.8942C53.7644 72.0404 53.7284 72.2286 53.6987 72.4504C53.6394 72.8938 53.6068 73.4607 53.5927 74.0716C53.5645 75.2928 53.6106 76.6797 53.6619 77.5839C53.6651 77.6405 53.6218 77.6889 53.5651 77.6921C53.5084 77.6953 53.4599 77.6521 53.4567 77.5955C53.4052 76.6878 53.3588 75.2952 53.3872 74.0669C53.4013 73.453 53.4342 72.8775 53.495 72.4233C53.5254 72.1963 53.563 71.9968 53.6098 71.8368C53.6554 71.6808 53.7139 71.5468 53.7949 71.4659C53.8351 71.4259 53.9001 71.4259 53.9403 71.4659ZM49.1156 76.4117C50.0467 76.8978 50.8805 77.5076 51.3651 77.9221C51.4082 77.959 51.4132 78.0237 51.3763 78.0667C51.3393 78.1097 51.2744 78.1147 51.2313 78.0779C50.7568 77.6719 49.9358 77.0714 49.0204 76.5934C48.1014 76.1136 47.1045 75.7666 46.272 75.8457C46.2155 75.851 46.1653 75.8097 46.1599 75.7533C46.1545 75.6969 46.196 75.6468 46.2525 75.6415C47.1466 75.5565 48.1881 75.9274 49.1156 76.4117ZM60.853 75.7177C60.8674 75.7725 60.8344 75.8285 60.7795 75.8428C59.8505 76.0847 58.7569 76.6755 57.7624 77.3218C56.7697 77.9669 55.8844 78.6615 55.3738 79.1031C55.3309 79.1402 55.266 79.1356 55.2288 79.0928C55.1916 79.05 55.1963 78.9852 55.2392 78.9481C55.7563 78.5009 56.649 77.8006 57.6502 77.1499C58.6495 76.5005 59.7656 75.8948 60.7276 75.6443C60.7826 75.63 60.8387 75.6629 60.853 75.7177ZM51.3965 80.8416C51.4132 80.8958 51.3827 80.9532 51.3285 80.9698C50.6657 81.1733 49.6187 81.5709 48.6364 82.1005C47.6492 82.6327 46.7478 83.2877 46.3521 83.9985C46.3245 84.048 46.2619 84.0659 46.2123 84.0384C46.1627 84.0109 46.1448 83.9484 46.1724 83.8989C46.5989 83.1328 47.5474 82.4545 48.5387 81.92C49.5348 81.383 50.5946 80.9805 51.268 80.7738C51.3223 80.7571 51.3798 80.7875 51.3965 80.8416ZM56.0337 81.243C56.0553 81.1906 56.1153 81.1656 56.1678 81.1872C56.7435 81.4237 57.7434 81.7446 58.8643 81.9348C59.9866 82.1251 61.2202 82.1826 62.2685 81.9009C62.3233 81.8862 62.3797 81.9186 62.3945 81.9733C62.4092 82.028 62.3768 82.0843 62.322 82.099C61.2325 82.3917 59.9652 82.3296 58.8299 82.137C57.6932 81.9442 56.6787 81.619 56.0896 81.3769C56.0371 81.3553 56.012 81.2954 56.0337 81.243ZM53.8587 82.5132C53.9152 82.5083 53.9651 82.5501 53.97 82.6065C54.0388 83.3966 54.0905 84.6529 54.0216 85.8571C53.9872 86.4592 53.9225 87.0506 53.814 87.5653C53.706 88.0777 53.5526 88.5243 53.3346 88.8288C53.3016 88.8749 53.2374 88.8856 53.1912 88.8527C53.145 88.8198 53.1343 88.7557 53.1673 88.7096C53.3605 88.4398 53.5068 88.0265 53.6129 87.5231C53.7185 87.022 53.7823 86.4416 53.8164 85.8454C53.8846 84.6531 53.8334 83.4068 53.7652 82.6243C53.7603 82.5678 53.8022 82.5181 53.8587 82.5132Z" fill="#E1AFD1"/>
<ellipse cx="53.7748" cy="79.5385" rx="1.13053" ry="1.1282" fill="#E1AFD1"/>
<ellipse cx="53.7749" cy="79.5385" rx="0.513879" ry="0.51282" fill="#E1AFD1"/>
</g>
<path d="M256.391 62.6306C257.449 62.1546 258.949 61.7018 260.43 62.0396C263.15 62.6605 263.261 64.9531 261.822 66.1184C262.617 67.7725 261.518 69.8099 258.798 69.1891C257.376 68.8646 256.26 67.8498 255.506 67.009L253.098 64.6379C252.85 64.3933 252.99 63.7816 253.32 63.6698L256.391 62.6306Z" fill="#ECA9F5"/>
<path d="M256.245 65.7538C257.277 66.2846 258.566 67.1752 259.225 68.5431C260.435 71.0568 258.712 72.5731 256.904 72.1748C256.107 73.8278 253.828 74.2386 252.618 71.7249C251.985 70.4111 252.083 68.9058 252.27 67.7921L252.623 64.4314C252.659 64.0846 253.225 63.8127 253.518 64.0011L256.245 65.7538Z" fill="#ECA9F5"/>
<path d="M253.665 67.5965C253.894 68.7344 254.001 70.2978 253.343 71.6657C252.132 74.1794 249.872 73.7775 249.056 72.1156C247.267 72.5227 245.525 70.9976 246.735 68.4839C247.368 67.1701 248.606 66.3078 249.593 65.7599L252.441 63.9402C252.735 63.7524 253.3 64.0251 253.335 64.3717L253.665 67.5965Z" fill="#ECA9F5"/>
<path d="M250.568 66.9048C249.821 67.7929 248.666 68.8517 247.186 69.1896C244.466 69.8104 243.371 67.793 244.161 66.1189C242.727 64.9736 242.834 62.661 245.554 62.0401C246.976 61.7156 248.421 62.1457 249.465 62.5762L252.663 63.6678C252.993 63.7804 253.133 64.3923 252.884 64.6362L250.568 66.9048Z" fill="#ECA9F5"/>
<path d="M249.346 63.8931C248.186 63.8627 246.638 63.6197 245.451 62.6731C243.269 60.9335 244.164 58.8198 245.966 58.3941C245.967 56.5588 247.841 55.2001 250.023 56.9397C251.163 57.8488 251.728 59.2474 252.043 60.3321L253.183 63.5129C253.301 63.8412 252.909 64.3316 252.563 64.289L249.346 63.8931Z" fill="#ECA9F5"/>
<path d="M250.791 61.0934C250.092 60.1674 249.316 58.8055 249.316 57.2872C249.316 54.4972 251.527 53.8788 252.983 55.0221C254.419 53.8788 256.65 54.4972 256.65 57.2872C256.65 58.7454 255.909 60.0593 255.257 60.9814L253.481 63.8563C253.298 64.153 252.67 64.1526 252.488 63.8557L250.791 61.0934Z" fill="#ECA9F5"/>
<path d="M254.044 60.5114C254.332 59.387 254.913 57.9318 256.1 56.9852C258.282 55.2456 260.143 56.5882 260.157 58.4396C261.946 58.8492 262.854 60.9791 260.673 62.7186C259.532 63.6278 258.043 63.8676 256.916 63.9328L253.561 64.3369C253.215 64.3786 252.824 63.8877 252.942 63.56L254.044 60.5114Z" fill="#ECA9F5"/>
<g style="mix-blend-mode:multiply">
<path d="M252.573 60.2949C252.622 59.7762 253.379 59.7762 253.428 60.2949V60.2949C253.467 60.7071 254.009 60.8308 254.223 60.4764V60.4764C254.492 60.0303 255.174 60.3587 254.993 60.8473V60.8473C254.849 61.2355 255.284 61.5823 255.63 61.3557V61.3557C256.067 61.0706 256.539 61.6624 256.163 62.0241V62.0241C255.865 62.3115 256.107 62.8126 256.517 62.7588V62.7588C257.034 62.6911 257.202 63.4291 256.708 63.5922V63.5922C256.314 63.7219 256.314 64.2781 256.708 64.4077V64.4077C257.202 64.5709 257.034 65.3089 256.517 65.2412V65.2412C256.107 65.1874 255.865 65.6885 256.163 65.9759V65.9759C256.539 66.3375 256.067 66.9294 255.63 66.6443V66.6443C255.284 66.4177 254.849 66.7645 254.993 67.1527V67.1527C255.174 67.6412 254.492 67.9697 254.223 67.5236V67.5236C254.009 67.1691 253.467 67.2929 253.428 67.7051V67.7051C253.379 68.2238 252.622 68.2238 252.573 67.7051V67.7051C252.534 67.2929 251.992 67.1691 251.778 67.5236V67.5236C251.509 67.9697 250.827 67.6412 251.008 67.1527V67.1527C251.151 66.7645 250.716 66.4177 250.37 66.6443V66.6443C249.934 66.9294 249.462 66.3375 249.837 65.9759V65.9759C250.135 65.6885 249.894 65.1874 249.483 65.2412V65.2412C248.967 65.3089 248.798 64.5709 249.293 64.4077V64.4077C249.686 64.2781 249.686 63.7219 249.293 63.5922V63.5922C248.798 63.4291 248.967 62.6911 249.483 62.7588V62.7588C249.894 62.8126 250.135 62.3115 249.837 62.0241V62.0241C249.462 61.6624 249.934 61.0706 250.37 61.3557V61.3557C250.716 61.5823 251.151 61.2355 251.008 60.8473V60.8473C250.827 60.3587 251.509 60.0303 251.778 60.4763V60.4763C251.992 60.8308 252.534 60.7071 252.573 60.2949V60.2949Z" fill="#ECA9F5"/>
</g>
<g style="mix-blend-mode:multiply">
<path fill-rule="evenodd" clip-rule="evenodd" d="M252.436 60.282C252.501 59.5975 253.5 59.5975 253.564 60.282C253.591 60.5624 253.96 60.6466 254.105 60.4054C254.46 59.8168 255.36 60.2502 255.121 60.8949C255.024 61.159 255.32 61.395 255.555 61.2408C256.131 60.8645 256.754 61.6456 256.259 62.1229C256.056 62.3184 256.22 62.6593 256.499 62.6227C257.181 62.5334 257.403 63.5073 256.75 63.7226C256.483 63.8108 256.483 64.1892 256.75 64.2774C257.403 64.4926 257.181 65.4666 256.499 65.3772C256.22 65.3406 256.056 65.6816 256.259 65.8771C256.754 66.3543 256.131 67.1354 255.555 66.7591C255.32 66.605 255.024 66.8409 255.121 67.105C255.36 67.7497 254.46 68.1832 254.105 67.5945C253.96 67.3533 253.591 67.4375 253.564 67.718C253.5 68.4024 252.501 68.4024 252.436 67.718C252.41 67.4375 252.041 67.3533 251.895 67.5945C251.54 68.1832 250.64 67.7497 250.879 67.105C250.977 66.8409 250.681 66.605 250.445 66.7591C249.87 67.1354 249.247 66.3543 249.742 65.8771C249.944 65.6816 249.78 65.3406 249.501 65.3772C248.819 65.4666 248.597 64.4926 249.25 64.2774C249.517 64.1892 249.517 63.8108 249.25 63.7226C248.597 63.5073 248.819 62.5334 249.501 62.6227C249.78 62.6593 249.944 62.3184 249.742 62.1229C249.247 61.6456 249.87 60.8645 250.445 61.2408C250.681 61.395 250.977 61.159 250.879 60.8949C250.64 60.2502 251.54 59.8168 251.895 60.4054C252.041 60.6466 252.41 60.5624 252.436 60.282ZM253.291 60.3078C253.258 59.9549 252.743 59.9549 252.709 60.3078C252.658 60.8517 251.942 61.0151 251.66 60.5472C251.477 60.2438 251.013 60.4672 251.136 60.7996C251.326 61.3119 250.752 61.7696 250.295 61.4706C249.998 61.2766 249.677 61.6792 249.932 61.9253C250.325 62.3045 250.007 62.9659 249.465 62.8949C249.114 62.8488 248.999 63.3509 249.336 63.4619C249.855 63.633 249.855 64.367 249.336 64.5381C248.999 64.649 249.114 65.1511 249.465 65.1051C250.007 65.0341 250.325 65.6954 249.932 66.0747C249.677 66.3207 249.998 66.7233 250.295 66.5294C250.752 66.2303 251.326 66.688 251.136 67.2004C251.013 67.5327 251.477 67.7562 251.66 67.4527C251.942 66.9849 252.658 67.1482 252.709 67.6922C252.743 68.045 253.258 68.045 253.291 67.6922C253.342 67.1482 254.058 66.9849 254.34 67.4527C254.523 67.7562 254.987 67.5327 254.864 67.2004C254.674 66.688 255.248 66.2303 255.705 66.5294C256.002 66.7233 256.323 66.3207 256.068 66.0747C255.675 65.6954 255.993 65.0341 256.535 65.1051C256.886 65.1511 257.001 64.649 256.664 64.5381C256.146 64.367 256.146 63.633 256.664 63.4619C257.001 63.3509 256.886 62.8488 256.535 62.8949C255.993 62.9659 255.675 62.3045 256.068 61.9253C256.323 61.6792 256.002 61.2766 255.705 61.4706C255.248 61.7696 254.674 61.3119 254.864 60.7996C254.987 60.4672 254.523 60.2438 254.34 60.5472C254.058 61.0151 253.342 60.8517 253.291 60.3078Z" fill="#ECA9F5"/>
</g>
<path d="M165.294 76.0083C166.922 76.8685 170.164 77.8519 170.68 76.8753C171.196 75.8987 168.557 73.7741 166.929 72.9139C165.302 72.0537 162.355 71.2261 161.839 72.2026C161.322 73.1792 163.666 75.1481 165.294 76.0083Z" fill="#D25EE1"/>
<path d="M161.017 77.277C161.359 79.0859 162.612 82.2336 163.697 82.0283C164.783 81.8229 164.798 78.4352 164.456 76.6263C164.114 74.8175 162.923 71.9973 161.838 72.2026C160.753 72.408 160.675 75.4682 161.017 77.277Z" fill="#D25EE1"/>
<path d="M157.359 74.7246C156.159 76.12 154.478 79.0618 155.316 79.7823C156.153 80.5028 158.811 78.403 160.012 77.0076C161.213 75.6122 162.676 72.9231 161.839 72.2026C161.001 71.4821 158.56 73.3292 157.359 74.7246Z" fill="#D25EE1"/>
<path d="M157.074 70.273C155.234 70.2042 151.887 70.7248 151.845 71.8286C151.804 72.9324 155.103 73.7018 156.943 73.7706C158.783 73.8394 161.797 73.3064 161.838 72.2026C161.88 71.0988 158.914 70.3419 157.074 70.273Z" fill="#D25EE1"/>
<path d="M160.376 67.2745C159.283 65.7933 156.789 63.5007 155.9 64.1566C155.011 64.8125 156.467 67.8716 157.56 69.3529C158.653 70.8341 160.949 72.8585 161.838 72.2026C162.727 71.5467 161.469 68.7557 160.376 67.2745Z" fill="#D25EE1"/>
<path d="M164.78 67.9868C165.257 66.2086 165.494 62.8292 164.427 62.5433C163.36 62.2574 161.876 65.3027 161.399 67.081C160.923 68.8592 160.772 71.9167 161.839 72.2025C162.906 72.4884 164.304 69.765 164.78 67.9868Z" fill="#D25EE1"/>
<path d="M166.968 71.8738C168.656 71.1376 171.446 69.2161 171.004 68.2037C170.562 67.1913 167.256 67.9296 165.569 68.6658C163.881 69.402 161.397 71.1902 161.838 72.2026C162.28 73.215 165.281 72.61 166.968 71.8738Z" fill="#D25EE1"/>
<g style="mix-blend-mode:multiply">
<circle cx="161.836" cy="72.2474" r="2.14216" transform="rotate(15 161.836 72.2474)" fill="#D25EE1"/>
<g style="mix-blend-mode:multiply">
<path d="M163.372 73.1273C163.073 73.0473 162.948 72.5454 162.948 72.5454C162.948 72.5454 163.307 72.1733 163.606 72.2534C163.905 72.3334 164.895 73.067 164.895 73.067C164.895 73.067 163.67 73.2073 163.372 73.1273Z" fill="#D25EE1"/>
</g>
<g style="mix-blend-mode:multiply">
<path d="M162.3 73.9556C162.145 73.6879 162.412 73.2447 162.412 73.2447C162.412 73.2447 162.929 73.2355 163.083 73.5032C163.238 73.771 163.419 74.9898 163.419 74.9898C163.419 74.9898 162.454 74.2234 162.3 73.9556Z" fill="#D25EE1"/>
</g>
<g style="mix-blend-mode:multiply">
<path d="M160.956 73.7833C161.036 73.4847 161.538 73.3597 161.538 73.3597C161.538 73.3597 161.91 73.7189 161.83 74.0175C161.75 74.3161 161.016 75.3062 161.016 75.3062C161.016 75.3062 160.876 74.0819 160.956 73.7833Z" fill="#D25EE1"/>
</g>
<g style="mix-blend-mode:multiply">
<path d="M160.128 72.7113C160.396 72.5567 160.839 72.8232 160.839 72.8232C160.839 72.8232 160.848 73.3403 160.58 73.4949C160.312 73.6494 159.094 73.8308 159.094 73.8308C159.094 73.8308 159.86 72.8659 160.128 72.7113Z" fill="#D25EE1"/>
</g>
<g style="mix-blend-mode:multiply">
<path d="M160.3 71.3676C160.599 71.4476 160.724 71.9494 160.724 71.9494C160.724 71.9494 160.365 72.3215 160.066 72.2415C159.767 72.1615 158.777 71.4278 158.777 71.4278C158.777 71.4278 160.002 71.2875 160.3 71.3676Z" fill="#D25EE1"/>
</g>
<g style="mix-blend-mode:multiply">
<path d="M161.372 70.5393C161.527 70.807 161.26 71.2502 161.26 71.2502C161.26 71.2502 160.743 71.2594 160.589 70.9916C160.434 70.7239 160.253 69.505 160.253 69.505C160.253 69.505 161.218 70.2715 161.372 70.5393Z" fill="#D25EE1"/>
</g>
<g style="mix-blend-mode:multiply">
<path d="M162.716 70.7116C162.635 71.0102 162.134 71.1352 162.134 71.1352C162.134 71.1352 161.762 70.776 161.842 70.4774C161.922 70.1788 162.655 69.1887 162.655 69.1887C162.655 69.1887 162.796 70.413 162.716 70.7116Z" fill="#D25EE1"/>
</g>
<g style="mix-blend-mode:multiply">
<path d="M163.544 71.7835C163.276 71.9381 162.833 71.6717 162.833 71.6717C162.833 71.6717 162.824 71.1546 163.092 71C163.359 70.8454 164.578 70.6641 164.578 70.6641C164.578 70.6641 163.812 71.629 163.544 71.7835Z" fill="#D25EE1"/>
</g>
</g>
<path d="M207.6 1.62538C205.056 2.75675 205.48 5.86802 206.01 7.28223C204.95 7.57686 202.866 8.87322 203.007 11.7016C203.148 14.5301 206.363 14.8836 207.953 14.7069C207.529 18.5252 210.839 19.7155 212.546 19.8334C217.069 19.692 217.611 16.2389 217.316 14.5301C220.143 16.6514 222.027 15.1783 222.616 14.1765C224.029 10.641 221.203 8.5786 219.613 7.98934C221.874 5.7266 220.555 3.511 219.613 2.68604C216.221 -0.142383 213.842 2.56819 213.076 4.27703C212.311 2.92174 210.144 0.49401 207.6 1.62538Z" fill="#CDCDCD"/>
<path d="M210.243 2.21726C208.131 3.14699 207.532 6.47404 207.972 7.63621C207.092 7.87832 205.361 8.94364 205.479 11.268C205.596 13.5923 208.266 13.8828 209.586 13.7376C209.234 16.8754 211.652 17.5 213.07 17.5968C216.249 17.4201 216.847 15.1418 216.603 13.7376C218.95 15.4808 221.271 14.1249 221.76 13.3017C222.934 10.3963 221.47 8.53514 220.15 8.05091C222.028 6.19145 220.72 3.68614 220.136 3.10116C217.663 0.626284 214.836 0.803066 213.07 4.16181C212.716 3.4547 211.656 1.59518 210.243 2.21726Z" fill="white"/>
<path d="M208.674 17.8494L212.201 11.7373L207.954 15.9865C207.932 15.8087 207.919 15.6235 207.916 15.4305L211.904 11.4399L206.293 14.6819C206.082 14.6535 205.87 14.6146 205.658 14.5633L211.695 11.0756L203.913 13.1624L203.804 12.7567L211.587 10.67L203.529 10.67L203.529 10.2501L211.587 10.2501L204.296 8.2951C204.422 8.17388 204.552 8.06379 204.683 7.96437L211.695 9.84443L205.759 6.41495C205.722 6.24304 205.69 6.06237 205.665 5.8757L211.905 9.48087L206.208 3.77962L206.22 3.76735L205.88 3.42688C205.933 3.28761 205.994 3.15134 206.066 3.01918L212.168 9.12571L208.173 2.2014L208.536 1.99145L212.565 8.97385L210.644 1.80063C210.826 1.89956 211 2.01082 211.167 2.13106L212.97 8.86504L212.97 4.0977C213.008 4.15918 213.043 4.21907 213.076 4.277C213.161 4.0872 213.266 3.88503 213.39 3.67948L213.39 8.86463L215.276 1.82165C215.433 1.74095 215.596 1.67138 215.766 1.6153L213.796 8.97317L217.824 1.99136L218.187 2.20131L218.188 2.20147L214.159 9.18357L219.856 3.48272L219.856 3.48289L220.153 3.77975L214.456 9.48067L220.826 5.80071C220.797 5.98619 220.751 6.17557 220.683 6.36791L214.666 9.84428L220.338 8.32347C220.501 8.41252 220.667 8.5132 220.833 8.62553L214.774 10.2501L222.418 10.2501C222.499 10.3845 222.574 10.5245 222.641 10.67L214.774 10.67L222.557 12.7567L222.448 13.1623L214.665 11.0755L221.643 15.107L221.593 15.1938C221.488 15.2576 221.375 15.3164 221.257 15.3686L214.514 11.4728L218.058 15.0197C217.819 14.8838 217.571 14.7216 217.316 14.53C217.338 14.6596 217.356 14.7991 217.367 14.9465L214.159 11.736L217.137 16.8974C217.082 17.0643 217.016 17.2306 216.939 17.3943L213.795 11.946L215.664 18.9225C215.547 19.0051 215.423 19.0836 215.292 19.1571L213.39 12.0549V19.7636C213.255 19.7824 213.115 19.7978 212.97 19.8096L212.97 12.055L210.978 19.4948C210.848 19.448 210.717 19.3958 210.586 19.3381L212.565 11.9468L208.958 18.198C208.858 18.0884 208.763 17.9723 208.674 17.8494Z" fill="#9B9B9B"/>
<path d="M214.992 7.10184C215.98 7.53428 215.815 8.72346 215.609 9.264C216.021 9.37662 216.832 9.87211 216.777 10.9532C216.722 12.0343 215.472 12.1694 214.854 12.1018C215.019 13.5613 213.733 14.0163 213.069 14.0613C211.311 14.0072 211.101 12.6874 211.215 12.0343C210.117 12.8451 209.384 12.282 209.156 11.8991C208.606 10.5478 209.705 9.7595 210.323 9.53428C209.444 8.66941 209.957 7.82257 210.323 7.50725C211.641 6.42617 212.566 7.46221 212.863 8.11536C213.161 7.59734 214.003 6.66941 214.992 7.10184Z" fill="#9B9B9B"/>
<path d="M214.119 8.8138C214.613 9.03002 214.531 9.62461 214.428 9.89488C214.634 9.95119 215.039 10.1989 215.011 10.7395C214.984 11.28 214.359 11.3476 214.05 11.3138C214.133 12.0435 213.489 12.271 213.158 12.2935C212.279 12.2665 212.173 11.6066 212.231 11.28C211.681 11.6854 211.315 11.4039 211.201 11.2124C210.926 10.5368 211.475 10.1426 211.784 10.03C211.345 9.59758 211.601 9.17416 211.784 9.0165C212.444 8.47596 212.906 8.99398 213.055 9.32056C213.203 9.06155 213.624 8.59758 214.119 8.8138Z" fill="white"/>
<g style="mix-blend-mode:multiply">
<path d="M207.6 1.62538C205.056 2.75675 205.48 5.86802 206.01 7.28223C204.95 7.57686 202.866 8.87322 203.007 11.7016C203.148 14.5301 206.363 14.8836 207.953 14.7069C207.529 18.5252 210.839 19.7155 212.546 19.8334C217.069 19.692 217.611 16.2389 217.316 14.5301C220.143 16.6514 222.027 15.1783 222.616 14.1765C224.029 10.641 221.203 8.5786 219.613 7.98934C221.874 5.7266 220.555 3.511 219.613 2.68604C216.221 -0.142383 213.842 2.56819 213.076 4.27703C212.311 2.92174 210.144 0.49401 207.6 1.62538Z" fill="#A209D8"/>
<path d="M210.243 2.21726C208.131 3.14699 207.532 6.47404 207.972 7.63621C207.092 7.87832 205.361 8.94364 205.479 11.268C205.596 13.5923 208.266 13.8828 209.586 13.7376C209.234 16.8754 211.652 17.5 213.07 17.5968C216.249 17.4201 216.847 15.1418 216.603 13.7376C218.95 15.4808 221.271 14.1249 221.76 13.3017C222.934 10.3963 221.47 8.53514 220.15 8.05091C222.028 6.19145 220.72 3.68614 220.136 3.10116C217.663 0.626284 214.836 0.803066 213.07 4.16181C212.716 3.4547 211.656 1.59518 210.243 2.21726Z" fill="#A209D8"/>
<path d="M208.674 17.8494L212.201 11.7373L207.954 15.9865C207.932 15.8087 207.919 15.6235 207.916 15.4305L211.904 11.4399L206.293 14.6819C206.082 14.6535 205.87 14.6146 205.658 14.5633L211.695 11.0756L203.913 13.1624L203.804 12.7567L211.587 10.67L203.529 10.67L203.529 10.2501L211.587 10.2501L204.296 8.2951C204.422 8.17388 204.552 8.06379 204.683 7.96437L211.695 9.84443L205.759 6.41495C205.722 6.24304 205.69 6.06237 205.665 5.8757L211.905 9.48087L206.208 3.77962L206.22 3.76735L205.88 3.42688C205.933 3.28761 205.994 3.15134 206.066 3.01918L212.168 9.12571L208.173 2.2014L208.536 1.99145L212.565 8.97385L210.644 1.80063C210.826 1.89956 211 2.01082 211.167 2.13106L212.97 8.86504L212.97 4.0977C213.008 4.15918 213.043 4.21907 213.076 4.277C213.161 4.0872 213.266 3.88503 213.39 3.67948L213.39 8.86463L215.276 1.82165C215.433 1.74095 215.596 1.67138 215.766 1.6153L213.796 8.97317L217.824 1.99136L218.187 2.20131L218.188 2.20147L214.159 9.18357L219.856 3.48272L219.856 3.48289L220.153 3.77975L214.456 9.48067L220.826 5.80071C220.797 5.98619 220.751 6.17557 220.683 6.36791L214.666 9.84428L220.338 8.32347C220.501 8.41252 220.667 8.5132 220.833 8.62553L214.774 10.2501L222.418 10.2501C222.499 10.3845 222.574 10.5245 222.641 10.67L214.774 10.67L222.557 12.7567L222.448 13.1623L214.665 11.0755L221.643 15.107L221.593 15.1938C221.488 15.2576 221.375 15.3164 221.257 15.3686L214.514 11.4728L218.058 15.0197C217.819 14.8838 217.571 14.7216 217.316 14.53C217.338 14.6596 217.356 14.7991 217.367 14.9465L214.159 11.736L217.137 16.8974C217.082 17.0643 217.016 17.2306 216.939 17.3943L213.795 11.946L215.664 18.9225C215.547 19.0051 215.423 19.0836 215.292 19.1571L213.39 12.0549V19.7636C213.255 19.7824 213.115 19.7978 212.97 19.8096L212.97 12.055L210.978 19.4948C210.848 19.448 210.717 19.3958 210.586 19.3381L212.565 11.9468L208.958 18.198C208.858 18.0884 208.763 17.9723 208.674 17.8494Z" fill="#A209D8"/>
<path d="M214.992 7.10184C215.98 7.53428 215.815 8.72346 215.609 9.264C216.021 9.37662 216.832 9.87211 216.777 10.9532C216.722 12.0343 215.472 12.1694 214.854 12.1018C215.019 13.5613 213.733 14.0163 213.069 14.0613C211.311 14.0072 211.101 12.6874 211.215 12.0343C210.117 12.8451 209.384 12.282 209.156 11.8991C208.606 10.5478 209.705 9.7595 210.323 9.53428C209.444 8.66941 209.957 7.82257 210.323 7.50725C211.641 6.42617 212.566 7.46221 212.863 8.11536C213.161 7.59734 214.003 6.66941 214.992 7.10184Z" fill="#A209D8"/>
<path d="M214.119 8.8138C214.613 9.03002 214.531 9.62461 214.428 9.89488C214.634 9.95119 215.039 10.1989 215.011 10.7395C214.984 11.28 214.359 11.3476 214.05 11.3138C214.133 12.0435 213.489 12.271 213.158 12.2935C212.279 12.2665 212.173 11.6066 212.231 11.28C211.681 11.6854 211.315 11.4039 211.201 11.2124C210.926 10.5368 211.475 10.1426 211.784 10.03C211.345 9.59758 211.601 9.17416 211.784 9.0165C212.444 8.47596 212.906 8.99398 213.055 9.32056C213.203 9.06155 213.624 8.59758 214.119 8.8138Z" fill="#A209D8"/>
</g>
<g style="mix-blend-mode:soft-light">
<path d="M207.6 1.62538C205.056 2.75675 205.48 5.86802 206.01 7.28223C204.95 7.57686 202.866 8.87322 203.007 11.7016C203.148 14.5301 206.363 14.8836 207.953 14.7069C207.529 18.5252 210.839 19.7155 212.546 19.8334C217.069 19.692 217.611 16.2389 217.316 14.5301C220.143 16.6514 222.027 15.1783 222.616 14.1765C224.029 10.641 221.203 8.5786 219.613 7.98934C221.874 5.7266 220.555 3.511 219.613 2.68604C216.221 -0.142383 213.842 2.56819 213.076 4.27703C212.311 2.92174 210.144 0.49401 207.6 1.62538Z" fill="#A209D8"/>
<path d="M210.243 2.21726C208.131 3.14699 207.532 6.47404 207.972 7.63621C207.092 7.87832 205.361 8.94364 205.479 11.268C205.596 13.5923 208.266 13.8828 209.586 13.7376C209.234 16.8754 211.652 17.5 213.07 17.5968C216.249 17.4201 216.847 15.1418 216.603 13.7376C218.95 15.4808 221.271 14.1249 221.76 13.3017C222.934 10.3963 221.47 8.53514 220.15 8.05091C222.028 6.19145 220.72 3.68614 220.136 3.10116C217.663 0.626284 214.836 0.803066 213.07 4.16181C212.716 3.4547 211.656 1.59518 210.243 2.21726Z" fill="#A209D8"/>
<path d="M208.674 17.8494L212.201 11.7373L207.954 15.9865C207.932 15.8087 207.919 15.6235 207.916 15.4305L211.904 11.4399L206.293 14.6819C206.082 14.6535 205.87 14.6146 205.658 14.5633L211.695 11.0756L203.913 13.1624L203.804 12.7567L211.587 10.67L203.529 10.67L203.529 10.2501L211.587 10.2501L204.296 8.2951C204.422 8.17388 204.552 8.06379 204.683 7.96437L211.695 9.84443L205.759 6.41495C205.722 6.24304 205.69 6.06237 205.665 5.8757L211.905 9.48087L206.208 3.77962L206.22 3.76735L205.88 3.42688C205.933 3.28761 205.994 3.15134 206.066 3.01918L212.168 9.12571L208.173 2.2014L208.536 1.99145L212.565 8.97385L210.644 1.80063C210.826 1.89956 211 2.01082 211.167 2.13106L212.97 8.86504L212.97 4.0977C213.008 4.15918 213.043 4.21907 213.076 4.277C213.161 4.0872 213.266 3.88503 213.39 3.67948L213.39 8.86463L215.276 1.82165C215.433 1.74095 215.596 1.67138 215.766 1.6153L213.796 8.97317L217.824 1.99136L218.187 2.20131L218.188 2.20147L214.159 9.18357L219.856 3.48272L219.856 3.48289L220.153 3.77975L214.456 9.48067L220.826 5.80071C220.797 5.98619 220.751 6.17557 220.683 6.36791L214.666 9.84428L220.338 8.32347C220.501 8.41252 220.667 8.5132 220.833 8.62553L214.774 10.2501L222.418 10.2501C222.499 10.3845 222.574 10.5245 222.641 10.67L214.774 10.67L222.557 12.7567L222.448 13.1623L214.665 11.0755L221.643 15.107L221.593 15.1938C221.488 15.2576 221.375 15.3164 221.257 15.3686L214.514 11.4728L218.058 15.0197C217.819 14.8838 217.571 14.7216 217.316 14.53C217.338 14.6596 217.356 14.7991 217.367 14.9465L214.159 11.736L217.137 16.8974C217.082 17.0643 217.016 17.2306 216.939 17.3943L213.795 11.946L215.664 18.9225C215.547 19.0051 215.423 19.0836 215.292 19.1571L213.39 12.0549V19.7636C213.255 19.7824 213.115 19.7978 212.97 19.8096L212.97 12.055L210.978 19.4948C210.848 19.448 210.717 19.3958 210.586 19.3381L212.565 11.9468L208.958 18.198C208.858 18.0884 208.763 17.9723 208.674 17.8494Z" fill="#A209D8"/>
<path d="M214.992 7.10184C215.98 7.53428 215.815 8.72346 215.609 9.264C216.021 9.37662 216.832 9.87211 216.777 10.9532C216.722 12.0343 215.472 12.1694 214.854 12.1018C215.019 13.5613 213.733 14.0163 213.069 14.0613C211.311 14.0072 211.101 12.6874 211.215 12.0343C210.117 12.8451 209.384 12.282 209.156 11.8991C208.606 10.5478 209.705 9.7595 210.323 9.53428C209.444 8.66941 209.957 7.82257 210.323 7.50725C211.641 6.42617 212.566 7.46221 212.863 8.11536C213.161 7.59734 214.003 6.66941 214.992 7.10184Z" fill="#A209D8"/>
<path d="M214.119 8.8138C214.613 9.03002 214.531 9.62461 214.428 9.89488C214.634 9.95119 215.039 10.1989 215.011 10.7395C214.984 11.28 214.359 11.3476 214.05 11.3138C214.133 12.0435 213.489 12.271 213.158 12.2935C212.279 12.2665 212.173 11.6066 212.231 11.28C211.681 11.6854 211.315 11.4039 211.201 11.2124C210.926 10.5368 211.475 10.1426 211.784 10.03C211.345 9.59758 211.601 9.17416 211.784 9.0165C212.444 8.47596 212.906 8.99398 213.055 9.32056C213.203 9.06155 213.624 8.59758 214.119 8.8138Z" fill="#A209D8"/>
</g>
<path d="M14.6875 26.6479C15.8393 26.505 17.4063 26.5145 18.7212 27.2737C21.1374 28.6687 20.5678 30.8922 18.8495 31.5817C19.1218 33.3966 17.4708 35.0195 15.0546 33.6245C13.7917 32.8954 13.0243 31.5968 12.5518 30.571L10.95 27.5957C10.7847 27.2886 11.0988 26.7454 11.4471 26.7359L14.6875 26.6479Z" fill="#ECA9F5"/>
<path d="M13.1919 29.9852C13.8915 30.9112 14.6667 32.2731 14.6667 33.7914C14.6667 36.5814 12.4563 37.1998 11.0001 36.0565C9.56443 37.1998 7.33342 36.5814 7.33342 33.7914C7.33342 32.3332 8.07441 31.0193 8.72644 30.0972L10.5023 27.2223C10.6855 26.9256 11.3131 26.926 11.4954 27.223L13.1919 29.9852Z" fill="#ECA9F5"/>
<path d="M9.50435 30.504C9.05216 31.5729 8.2604 32.9252 6.94553 33.6844C4.5293 35.0794 2.88851 33.4743 3.15054 31.6415C1.4426 30.9699 0.862636 28.7285 3.27886 27.3335C4.5417 26.6044 6.05007 26.5892 7.17465 26.6928L10.5523 26.7933C10.9009 26.8037 11.2143 27.3473 11.0483 27.6537L9.50435 30.504Z" fill="#ECA9F5"/>
<path d="M7.31271 27.5188C6.16094 27.6617 4.5939 27.6521 3.27902 26.893C0.8628 25.498 1.43243 23.2745 3.1507 22.585C2.87841 20.7701 4.52947 19.1471 6.94569 20.5422C8.20853 21.2713 8.9759 22.5699 9.44846 23.5957L11.0503 26.571C11.2156 26.8781 10.9014 27.4213 10.5531 27.4308L7.31271 27.5188Z" fill="#ECA9F5"/>
<path d="M8.80835 24.0148C8.10878 23.0888 7.3335 21.7269 7.3335 20.2086C7.3335 17.4186 9.54393 16.8002 11.0002 17.9435C12.4358 16.8002 14.6668 17.4186 14.6668 20.2086C14.6668 21.6668 13.9258 22.9807 13.2738 23.9028L11.498 26.7777C11.3147 27.0744 10.6872 27.074 10.5048 26.777L8.80835 24.0148Z" fill="#ECA9F5"/>
<path d="M12.4956 23.6627C12.9478 22.5938 13.7396 21.2414 15.0545 20.4823C17.4707 19.0873 19.1115 20.6924 18.8495 22.5252C20.5574 23.1968 21.1374 25.4381 18.7211 26.8332C17.4583 27.5623 15.9499 27.5775 14.8253 27.4739L11.4477 27.3734C11.0991 27.363 10.7857 26.8194 10.9517 26.513L12.4956 23.6627Z" fill="#ECA9F5"/>
<g style="mix-blend-mode:color-dodge">
<path d="M10.9998 22.1667L11.3698 26.1069L14.4175 23.5823L11.8929 26.6301L15.8332 27L11.8929 27.3699L14.4175 30.4177L11.3698 27.8931L10.9998 31.8334L10.6299 27.8931L7.58215 30.4177L10.1068 27.3699L6.1665 27L10.1068 26.6301L7.58215 23.5823L10.6299 26.1069L10.9998 22.1667Z" fill="#ECA9F5"/>
</g>
<g style="mix-blend-mode:multiply">
<circle cx="1.9902" cy="1.9902" r="1.9902" transform="matrix(-1 0 0 1 12.9902 25.0098)" fill="#ECA9F5"/>
</g>
<g style="mix-blend-mode:multiply">
<path d="M12.0166 25.6822C11.8162 25.8827 11.8044 26.196 11.8044 26.196C11.8044 26.196 12.1177 26.1842 12.3182 25.9838C12.5187 25.7833 13.1112 24.8892 13.1112 24.8892C13.1112 24.8892 12.2171 25.4817 12.0166 25.6822Z" fill="#ECA9F5"/>
</g>
<g style="mix-blend-mode:multiply">
<path d="M12.4438 26.1714C12.1819 26.2799 12.0511 26.5649 12.0511 26.5649C12.0511 26.5649 12.3451 26.6739 12.607 26.5655C12.8689 26.457 13.7585 25.8577 13.7585 25.8577C13.7585 25.8577 12.7057 26.063 12.4438 26.1714Z" fill="#ECA9F5"/>
</g>
<g style="mix-blend-mode:multiply">
<path d="M12.6509 26.7868C12.3674 26.7868 12.1376 27.0001 12.1376 27.0001C12.1376 27.0001 12.3674 27.2133 12.6509 27.2133C12.9344 27.2133 13.9856 27.0001 13.9856 27.0001C13.9856 27.0001 12.9344 26.7868 12.6509 26.7868Z" fill="#ECA9F5"/>
</g>
<g style="mix-blend-mode:multiply">
<path d="M12.6069 27.4348C12.3449 27.3263 12.051 27.4353 12.051 27.4353C12.051 27.4353 12.1817 27.7203 12.4437 27.8288C12.7056 27.9373 13.7584 28.1425 13.7584 28.1425C13.7584 28.1425 12.8688 27.5433 12.6069 27.4348Z" fill="#ECA9F5"/>
</g>
<g style="mix-blend-mode:multiply">
<path d="M12.318 28.0164C12.1175 27.816 11.8042 27.8042 11.8042 27.8042C11.8042 27.8042 11.816 28.1175 12.0164 28.318C12.2169 28.5185 13.111 29.111 13.111 29.111C13.111 29.111 12.5185 28.2169 12.318 28.0164Z" fill="#ECA9F5"/>
</g>
<g style="mix-blend-mode:multiply">
<path d="M11.8288 28.4434C11.7203 28.1815 11.4353 28.0508 11.4353 28.0508C11.4353 28.0508 11.3263 28.3447 11.4348 28.6066C11.5433 28.8686 12.1426 29.7581 12.1426 29.7581C12.1426 29.7581 11.9373 28.7054 11.8288 28.4434Z" fill="#ECA9F5"/>
</g>
<g style="mix-blend-mode:multiply">
<path d="M11.2133 28.6507C11.2133 28.3671 11.0001 28.1373 11.0001 28.1373C11.0001 28.1373 10.7869 28.3671 10.7869 28.6507C10.7869 28.9342 11.0001 29.9854 11.0001 29.9854C11.0001 29.9854 11.2133 28.9342 11.2133 28.6507Z" fill="#ECA9F5"/>
</g>
<g style="mix-blend-mode:multiply">
<path d="M10.5657 28.6066C10.6742 28.3447 10.5651 28.0507 10.5651 28.0507C10.5651 28.0507 10.2801 28.1815 10.1717 28.4434C10.0632 28.7053 9.85789 29.7581 9.85789 29.7581C9.85789 29.7581 10.4572 28.8686 10.5657 28.6066Z" fill="#ECA9F5"/>
</g>
<g style="mix-blend-mode:multiply">
<path d="M9.98386 28.318C10.1843 28.1175 10.1961 27.8042 10.1961 27.8042C10.1961 27.8042 9.88277 27.816 9.6823 28.0164C9.48182 28.2169 8.88931 29.111 8.88931 29.111C8.88931 29.111 9.78338 28.5185 9.98386 28.318Z" fill="#ECA9F5"/>
</g>
<g style="mix-blend-mode:multiply">
<path d="M9.55695 27.8287C9.81888 27.7202 9.94961 27.4353 9.94961 27.4353C9.94961 27.4353 9.65567 27.3262 9.39374 27.4347C9.13181 27.5432 8.24225 28.1425 8.24225 28.1425C8.24225 28.1425 9.29501 27.9372 9.55695 27.8287Z" fill="#ECA9F5"/>
</g>
<g style="mix-blend-mode:multiply">
<path d="M9.34959 27.2133C9.6331 27.2133 9.86293 27 9.86293 27C9.86293 27 9.6331 26.7868 9.34959 26.7868C9.06608 26.7868 8.01489 27 8.01489 27C8.01489 27 9.06608 27.2133 9.34959 27.2133Z" fill="#ECA9F5"/>
</g>
<g style="mix-blend-mode:multiply">
<path d="M9.39362 26.5654C9.65556 26.6739 9.94949 26.5648 9.94949 26.5648C9.94949 26.5648 9.81876 26.2798 9.55683 26.1713C9.2949 26.0629 8.24213 25.8576 8.24213 25.8576C8.24213 25.8576 9.13169 26.4569 9.39362 26.5654Z" fill="#ECA9F5"/>
</g>
<g style="mix-blend-mode:multiply">
<path d="M9.68225 25.9837C9.88272 26.1841 10.196 26.1959 10.196 26.1959C10.196 26.1959 10.1843 25.8826 9.98381 25.6821C9.78334 25.4816 8.88926 24.8891 8.88926 24.8891C8.88926 24.8891 9.48178 25.7832 9.68225 25.9837Z" fill="#ECA9F5"/>
</g>
<g style="mix-blend-mode:multiply">
<path d="M10.1714 25.5566C10.2799 25.8186 10.5649 25.9493 10.5649 25.9493C10.5649 25.9493 10.6739 25.6554 10.5655 25.3934C10.457 25.1315 9.85768 24.2419 9.85768 24.2419C9.85768 24.2419 10.063 25.2947 10.1714 25.5566Z" fill="#ECA9F5"/>
</g>
<g style="mix-blend-mode:multiply">
<path d="M10.7869 25.3494C10.7869 25.6329 11.0001 25.8627 11.0001 25.8627C11.0001 25.8627 11.2134 25.6329 11.2134 25.3494C11.2134 25.0659 11.0001 24.0147 11.0001 24.0147C11.0001 24.0147 10.7869 25.0659 10.7869 25.3494Z" fill="#ECA9F5"/>
</g>
<g style="mix-blend-mode:multiply">
<path d="M11.4348 25.3936C11.3263 25.6555 11.4354 25.9494 11.4354 25.9494C11.4354 25.9494 11.7203 25.8187 11.8288 25.5568C11.9373 25.2948 12.1426 24.2421 12.1426 24.2421C12.1426 24.2421 11.5433 25.1316 11.4348 25.3936Z" fill="#ECA9F5"/>
</g>
</svg>
