<svg width="30" height="31" viewBox="0 0 30 31" fill="none" xmlns="http://www.w3.org/2000/svg">
<g clip-path="url(#clip0_107_989)">
<path d="M23.75 0.30957H6.25C2.79875 0.30957 0 3.10832 0 6.55957V24.0596C0 27.5108 2.79875 30.3096 6.25 30.3096H23.75C27.2025 30.3096 30 27.5108 30 24.0596V6.55957C30 3.10832 27.2025 0.30957 23.75 0.30957ZM10 24.0596H6.25V10.3096H10V24.0596ZM8.125 8.72457C6.9175 8.72457 5.9375 7.73707 5.9375 6.51957C5.9375 5.30207 6.9175 4.31457 8.125 4.31457C9.3325 4.31457 10.3125 5.30207 10.3125 6.51957C10.3125 7.73707 9.33375 8.72457 8.125 8.72457ZM25 24.0596H21.25V17.0546C21.25 12.8446 16.25 13.1633 16.25 17.0546V24.0596H12.5V10.3096H16.25V12.5158C17.995 9.28332 25 9.04457 25 15.6108V24.0596Z" fill="#E1AFD1"/>
</g>
<defs>
<clipPath id="clip0_107_989">
<rect width="30" height="30" fill="white" transform="translate(0 0.30957)"/>
</clipPath>
</defs>
</svg>
