<svg width="214" height="63" viewBox="0 0 214 63" fill="none" xmlns="http://www.w3.org/2000/svg">
<path d="M20.9477 27.8573C20.7816 26.383 20.0963 25.2409 18.892 24.4311C17.6876 23.6109 16.1718 23.2008 14.3445 23.2008C13.0363 23.2008 11.9046 23.4084 10.9494 23.8237C9.99423 24.2286 9.25188 24.7893 8.72238 25.5057C8.20326 26.2117 7.9437 27.0163 7.9437 27.9196C7.9437 28.6775 8.1202 29.3316 8.4732 29.8819C8.83659 30.4321 9.30899 30.8941 9.89041 31.2679C10.4822 31.6313 11.1155 31.9376 11.7904 32.1868C12.4652 32.4256 13.1142 32.6228 13.7371 32.7786L16.8518 33.5884C17.8693 33.8376 18.9127 34.175 19.9821 34.6007C21.0515 35.0264 22.0431 35.587 22.9567 36.2826C23.8704 36.9783 24.6075 37.84 25.1682 38.8679C25.7392 39.8957 26.0247 41.126 26.0247 42.5588C26.0247 44.3654 25.5575 45.9695 24.6231 47.3711C23.6991 48.7727 22.3545 49.8784 20.5895 50.6883C18.8349 51.4981 16.7117 51.903 14.2199 51.903C11.8319 51.903 9.76582 51.5241 8.02157 50.7661C6.27732 50.0082 4.91202 48.9336 3.92569 47.5424C2.93936 46.1408 2.39428 44.4796 2.29046 42.5588H7.11829C7.21174 43.7113 7.5855 44.6716 8.2396 45.4399C8.90407 46.1979 9.75024 46.7637 10.7781 47.1375C11.8163 47.5009 12.9532 47.6826 14.1887 47.6826C15.5488 47.6826 16.7584 47.4697 17.8174 47.044C18.8868 46.608 19.7278 46.0058 20.3403 45.2375C20.9529 44.4588 21.2592 43.5503 21.2592 42.5121C21.2592 41.5673 20.9892 40.7938 20.4493 40.1916C19.9198 39.5894 19.1983 39.0911 18.2846 38.6966C17.3813 38.302 16.3587 37.9542 15.2166 37.6531L11.4478 36.6253C8.89369 35.9296 6.86911 34.907 5.37404 33.5572C3.88935 32.2075 3.14701 30.4217 3.14701 28.1999C3.14701 26.3622 3.64537 24.7581 4.64208 23.3876C5.6388 22.0172 6.98851 20.953 8.69123 20.195C10.394 19.4267 12.3147 19.0426 14.4535 19.0426C16.613 19.0426 18.5182 19.4216 20.169 20.1795C21.8302 20.9374 23.1384 21.9808 24.0936 23.3098C25.0488 24.6283 25.5471 26.1442 25.5887 27.8573H20.9477ZM36.058 37.1703V51.3735H31.4015V27.4524H35.8712V31.3458H36.1671C36.7173 30.0791 37.5791 29.0616 38.7523 28.2933C39.9359 27.525 41.4258 27.1409 43.2219 27.1409C44.852 27.1409 46.2796 27.4835 47.5047 28.1688C48.7298 28.8436 49.6798 29.8507 50.3547 31.19C51.0295 32.5294 51.367 34.1854 51.367 36.158V51.3735H46.7104V36.7187C46.7104 34.9848 46.2588 33.6299 45.3555 32.654C44.4523 31.6676 43.2115 31.1745 41.6334 31.1745C40.5536 31.1745 39.5933 31.4081 38.7523 31.8753C37.9217 32.3425 37.2624 33.0277 36.7744 33.931C36.2968 34.8239 36.058 35.9037 36.058 37.1703ZM64.5734 51.903C63.0576 51.903 61.6871 51.6227 60.462 51.062C59.2368 50.491 58.2661 49.6656 57.5497 48.5858C56.8437 47.5061 56.4907 46.1823 56.4907 44.6145C56.4907 43.2648 56.7503 42.1539 57.2694 41.2818C57.7885 40.4097 58.4893 39.7192 59.3718 39.2105C60.2543 38.7017 61.2407 38.3176 62.3308 38.058C63.421 37.7985 64.5319 37.6012 65.6636 37.4662C67.0964 37.3001 68.2592 37.1651 69.1521 37.0613C70.045 36.9471 70.6939 36.7654 71.0988 36.5162C71.5037 36.2671 71.7062 35.8621 71.7062 35.3015V35.1925C71.7062 33.8324 71.322 32.7786 70.5537 32.031C69.7958 31.2835 68.6641 30.9097 67.1586 30.9097C65.5909 30.9097 64.3554 31.2575 63.4521 31.9532C62.5592 32.6384 61.9415 33.4015 61.5989 34.2425L57.2227 33.2458C57.7418 31.7922 58.4997 30.619 59.4964 29.7261C60.5035 28.8228 61.6611 28.1688 62.9693 27.7638C64.2775 27.3485 65.6532 27.1409 67.0964 27.1409C68.0515 27.1409 69.0638 27.2551 70.1332 27.4835C71.213 27.7015 72.2201 28.1065 73.1545 28.6983C74.0993 29.2901 74.8728 30.1362 75.475 31.2368C76.0772 32.3269 76.3783 33.7441 76.3783 35.4884V51.3735H71.8307V48.103H71.6439C71.3428 48.7052 70.8911 49.297 70.289 49.8784C69.6868 50.4599 68.9133 50.9426 67.9685 51.3268C67.0237 51.7109 65.892 51.903 64.5734 51.903ZM65.5857 48.1653C66.8731 48.1653 67.9737 47.911 68.8873 47.4022C69.8114 46.8935 70.5122 46.229 70.9898 45.4088C71.4777 44.5782 71.7217 43.6905 71.7217 42.7457V39.6621C71.5556 39.8282 71.2338 39.984 70.7562 40.1293C70.289 40.2643 69.7543 40.3837 69.1521 40.4875C68.5499 40.581 67.9633 40.6692 67.3923 40.7523C66.8212 40.825 66.3436 40.8872 65.9595 40.9392C65.0562 41.0534 64.2308 41.2454 63.4833 41.5154C62.7461 41.7853 62.1543 42.1747 61.7079 42.6834C61.2718 43.1818 61.0538 43.8462 61.0538 44.6768C61.0538 45.8293 61.4795 46.7014 62.3308 47.2932C63.1822 47.8746 64.2671 48.1653 65.5857 48.1653ZM82.5805 60.3439V27.4524H87.128V31.3302H87.5173C87.7873 30.8319 88.1766 30.2556 88.6853 29.6015C89.1941 28.9474 89.9001 28.3764 90.8034 27.8884C91.7066 27.3901 92.9006 27.1409 94.3853 27.1409C96.3164 27.1409 98.0399 27.6289 99.5558 28.6048C101.072 29.5808 102.26 30.9876 103.122 32.8253C103.994 34.663 104.43 36.8744 104.43 39.4597C104.43 42.0449 103.999 44.2615 103.138 46.1096C102.276 47.9473 101.092 49.3645 99.5869 50.3612C98.0814 51.3476 96.3632 51.8407 94.432 51.8407C92.9785 51.8407 91.7897 51.5967 90.8657 51.1088C89.952 50.6208 89.2356 50.0497 88.7165 49.3957C88.1974 48.7416 87.7976 48.1601 87.5173 47.6514H87.237V60.3439H82.5805ZM87.1435 39.4129C87.1435 41.0949 87.3875 42.5692 87.8755 43.8359C88.3635 45.1025 89.0695 46.094 89.9935 46.8104C90.9176 47.5164 92.0492 47.8694 93.3886 47.8694C94.7798 47.8694 95.9427 47.5009 96.8771 46.7637C97.8115 46.0162 98.5175 45.0039 98.9951 43.7268C99.4831 42.4498 99.7271 41.0118 99.7271 39.4129C99.7271 37.8348 99.4883 36.4176 99.0107 35.1613C98.5435 33.9051 97.8375 32.9135 96.8927 32.1868C95.9582 31.46 94.7902 31.0966 93.3886 31.0966C92.0389 31.0966 90.8968 31.4444 89.9624 32.14C89.0383 32.8357 88.3375 33.8064 87.8599 35.0523C87.3823 36.2982 87.1435 37.7517 87.1435 39.4129Z" fill="#191919"/>
<path d="M138.35 31.4392H129.566C129.504 30.7125 129.338 30.0532 129.068 29.4614C128.808 28.8696 128.445 28.3608 127.978 27.9352C127.521 27.4991 126.965 27.1669 126.311 26.9384C125.657 26.6996 124.915 26.5802 124.084 26.5802C122.631 26.5802 121.4 26.9332 120.393 27.6393C119.397 28.3453 118.639 29.3575 118.12 30.6761C117.611 31.9947 117.356 33.578 117.356 35.4261C117.356 37.378 117.616 39.0132 118.135 40.3318C118.665 41.64 119.428 42.6263 120.424 43.2908C121.421 43.9449 122.62 44.2719 124.022 44.2719C124.821 44.2719 125.538 44.1733 126.171 43.976C126.804 43.7684 127.355 43.4725 127.822 43.0883C128.289 42.7042 128.668 42.2422 128.959 41.7023C129.26 41.152 129.462 40.5342 129.566 39.849L138.35 39.9113C138.246 41.261 137.867 42.6367 137.213 44.0383C136.559 45.4296 135.63 46.717 134.425 47.9006C133.231 49.0738 131.752 50.0186 129.987 50.735C128.222 51.4514 126.171 51.8096 123.835 51.8096C120.907 51.8096 118.28 51.1814 115.955 49.9252C113.64 48.6689 111.807 46.8208 110.457 44.3809C109.118 41.9411 108.448 38.9561 108.448 35.4261C108.448 31.8753 109.134 28.8851 110.504 26.4557C111.875 24.0158 113.723 22.1729 116.048 20.927C118.374 19.6707 120.97 19.0426 123.835 19.0426C125.849 19.0426 127.703 19.3177 129.395 19.868C131.087 20.4183 132.572 21.2229 133.849 22.2819C135.126 23.3305 136.154 24.6232 136.933 26.1598C137.711 27.6964 138.184 29.4562 138.35 31.4392ZM150.999 37.9179V51.3735H142.403V19.4787H150.688V31.9999H150.937C151.477 30.4737 152.375 29.2849 153.631 28.4335C154.888 27.5718 156.398 27.1409 158.163 27.1409C159.856 27.1409 161.325 27.525 162.571 28.2933C163.827 29.0616 164.798 30.1207 165.483 31.4704C166.179 32.8201 166.521 34.3671 166.511 36.1113V51.3735H157.914V37.9179C157.925 36.7343 157.629 35.805 157.026 35.1302C156.435 34.4553 155.588 34.1179 154.488 34.1179C153.792 34.1179 153.18 34.2736 152.65 34.5851C152.131 34.8862 151.726 35.3223 151.436 35.8933C151.155 36.4539 151.01 37.1288 150.999 37.9179ZM182.217 51.8096C179.663 51.8096 177.462 51.3216 175.614 50.3456C173.776 49.3593 172.359 47.9473 171.362 46.1096C170.376 44.2615 169.883 42.0501 169.883 39.4752C169.883 37.0042 170.381 34.8447 171.378 32.9966C172.374 31.1485 173.781 29.7105 175.598 28.6827C177.415 27.6548 179.559 27.1409 182.03 27.1409C183.837 27.1409 185.472 27.4212 186.936 27.9819C188.4 28.5425 189.651 29.3575 190.689 30.4269C191.727 31.4859 192.527 32.7734 193.087 34.2892C193.648 35.805 193.928 37.513 193.928 39.4129V41.4064H172.561V36.672H186.017C186.006 35.9867 185.83 35.3846 185.487 34.8654C185.155 34.3359 184.703 33.9258 184.132 33.6351C183.572 33.334 182.933 33.1835 182.217 33.1835C181.521 33.1835 180.883 33.334 180.301 33.6351C179.72 33.9258 179.253 34.3307 178.9 34.8499C178.557 35.369 178.375 35.9764 178.355 36.672V41.7801C178.355 42.5484 178.516 43.2337 178.837 43.8359C179.159 44.438 179.621 44.9104 180.223 45.2531C180.826 45.5957 181.552 45.767 182.404 45.767C182.996 45.767 183.535 45.6839 184.023 45.5178C184.522 45.3517 184.947 45.1129 185.3 44.8014C185.653 44.4796 185.913 44.0954 186.079 43.649H193.928C193.658 45.3102 193.02 46.7533 192.013 47.9785C191.006 49.1932 189.671 50.138 188.01 50.8129C186.359 51.4773 184.428 51.8096 182.217 51.8096ZM211.764 27.4524V33.6818H195.754V27.4524H211.764ZM198.807 51.3735V26.7671C198.807 24.7945 199.16 23.1592 199.866 21.8614C200.572 20.5636 201.568 19.5929 202.856 18.9491C204.143 18.3054 205.659 17.9836 207.403 17.9836C208.494 17.9836 209.553 18.0666 210.58 18.2328C211.619 18.3989 212.387 18.5442 212.885 18.6688L211.639 24.836C211.328 24.7426 210.965 24.6699 210.549 24.618C210.134 24.5557 209.771 24.5245 209.459 24.5245C208.649 24.5245 208.104 24.6958 207.824 25.0384C207.544 25.3811 207.403 25.8327 207.403 26.3934V51.3735H198.807Z" fill="#FF9103"/>
<path d="M113.945 18.6979H115.016C115.016 18.3178 114.764 17.9737 114.374 17.8217L113.945 18.6979ZM133.935 18.6979L133.506 17.8217C133.116 17.9737 132.864 18.3178 132.864 18.6979H133.935ZM129.295 9.02928C129.295 9.55734 129.774 9.98543 130.366 9.98543C130.957 9.98543 131.436 9.55734 131.436 9.02928H129.295ZM116.444 9.02928C116.444 9.55734 116.923 9.98543 117.515 9.98543C118.106 9.98543 118.586 9.55734 118.586 9.02928H116.444ZM116.801 5.52339C112.267 5.52339 108.591 8.80536 108.591 12.8539H110.733C110.733 9.8615 113.449 7.43569 116.801 7.43569V5.52339ZM131.079 7.43569C134.431 7.43569 137.148 9.8615 137.148 12.8539H139.29C139.29 8.80536 135.614 5.52339 131.079 5.52339V7.43569ZM128 24.5H119.657V25.978L128 25.5V24.5ZM119.657 24.5C118.28 24.5 117.356 27.1941 116.666 27.1114C116.007 27.0322 115.725 26.8955 115.539 26.7294L114.024 28.0815C114.675 28.6622 115.484 28.899 116.38 29.0066C117.246 29.1105 118.341 25.978 119.657 25.978V24.5ZM112.874 23.0528C112.874 24.2277 112.872 25.2052 112.988 25.978C113.109 26.7784 113.374 27.501 114.024 28.0815L115.539 26.7294C115.353 26.5633 115.2 26.3115 115.111 25.7232C115.018 25.1074 115.016 24.2818 115.016 23.0528H112.874ZM132.864 23.0528C132.864 24.2818 132.862 25.1074 132.769 25.7232C132.681 26.3115 132.528 26.5633 132.342 26.7294L133.856 28.0815C134.506 27.501 134.771 26.7784 134.892 25.978C135.008 25.2052 135.006 24.2277 135.006 23.0528H132.864ZM128 25.5C129.316 25.5 130.634 29.1105 131.5 29.0066C132.396 28.899 133.206 28.6622 133.856 28.0815L132.342 26.7294C132.156 26.8955 131.874 27.0322 131.215 27.1114C130.525 27.1941 129.376 24.5 128 24.5V25.5ZM116.801 7.43569C117.106 7.43569 117.405 7.45572 117.697 7.49425L118.01 5.6025C117.615 5.55034 117.211 5.52339 116.801 5.52339V7.43569ZM123.94 1.69879C120.641 1.69879 117.842 3.60102 116.84 6.2413L118.868 6.85545C119.585 4.96758 121.587 3.61109 123.94 3.61109V1.69879ZM116.84 6.2413C116.583 6.91748 116.444 7.64118 116.444 8.39184H118.586C118.586 7.85277 118.685 7.33641 118.868 6.85545L116.84 6.2413ZM131.079 5.52339C130.669 5.52339 130.265 5.55034 129.87 5.6025L130.183 7.49425C130.475 7.45572 130.774 7.43569 131.079 7.43569V5.52339ZM123.94 3.61109C126.294 3.61109 128.295 4.96758 129.013 6.85545L131.041 6.2413C130.038 3.60102 127.239 1.69879 123.94 1.69879V3.61109ZM129.013 6.85545C129.195 7.33641 129.295 7.85277 129.295 8.39184H131.436C131.436 7.64118 131.298 6.91748 131.041 6.2413L129.013 6.85545ZM115.016 23.0528V18.6979H112.874V23.0528H115.016ZM114.374 17.8217C112.229 16.9847 110.733 15.0742 110.733 12.8539H108.591C108.591 15.8613 110.619 18.4437 113.517 19.574L114.374 17.8217ZM132.864 18.6979V23.0528H135.006V18.6979H132.864ZM137.148 12.8539C137.148 15.0742 135.652 16.9847 133.506 17.8217L134.364 19.574C137.261 18.4437 139.29 15.8613 139.29 12.8539H137.148ZM129.295 8.39184V9.02928H131.436V8.39184H129.295ZM116.444 8.39184V9.02928H118.586V8.39184H116.444Z" fill="#FF9103"/>
<path d="M133.935 23.0528H135.006M135.006 23.0528C135.006 24.2277 135.008 25.2052 134.892 25.978C134.771 26.7784 134.506 27.501 133.856 28.0815M135.006 23.0528H132.864M135.006 23.0528V18.6979H132.864M115.016 18.6979H113.945L114.374 17.8217M115.016 18.6979C115.016 18.3178 114.764 17.9737 114.374 17.8217M115.016 18.6979V23.0528M115.016 18.6979H112.874V23.0528M114.374 17.8217C112.229 16.9847 110.733 15.0742 110.733 12.8539M114.374 17.8217L113.517 19.574C110.619 18.4437 108.591 15.8613 108.591 12.8539M133.506 17.8217L133.935 18.6979H132.864M133.506 17.8217C133.116 17.9737 132.864 18.3178 132.864 18.6979M133.506 17.8217C135.652 16.9847 137.148 15.0742 137.148 12.8539M133.506 17.8217L134.364 19.574C137.261 18.4437 139.29 15.8613 139.29 12.8539M132.864 18.6979V23.0528M129.295 9.02928C129.295 9.55734 129.774 9.98543 130.366 9.98543C130.957 9.98543 131.436 9.55734 131.436 9.02928M129.295 9.02928H131.436M129.295 9.02928V8.39184M131.436 9.02928V8.39184M116.444 9.02928C116.444 9.55734 116.923 9.98543 117.515 9.98543C118.106 9.98543 118.586 9.55734 118.586 9.02928M116.444 9.02928H118.586M116.444 9.02928V8.39184M118.586 9.02928V8.39184M116.801 5.52339C112.267 5.52339 108.591 8.80536 108.591 12.8539M116.801 5.52339V7.43569M116.801 5.52339C117.211 5.52339 117.615 5.55034 118.01 5.6025L117.697 7.49425C117.405 7.45572 117.106 7.43569 116.801 7.43569M108.591 12.8539H110.733M110.733 12.8539C110.733 9.8615 113.449 7.43569 116.801 7.43569M131.079 7.43569C134.431 7.43569 137.148 9.8615 137.148 12.8539M131.079 7.43569V5.52339M131.079 7.43569C130.774 7.43569 130.475 7.45572 130.183 7.49425L129.87 5.6025C130.265 5.55034 130.669 5.52339 131.079 5.52339M137.148 12.8539H139.29M139.29 12.8539C139.29 8.80536 135.614 5.52339 131.079 5.52339M128 24.5H119.657M128 24.5V25.5M128 24.5C129.376 24.5 130.525 27.1941 131.215 27.1114C131.874 27.0322 132.156 26.8955 132.342 26.7294M119.657 24.5V25.978M119.657 24.5C118.28 24.5 117.356 27.1941 116.666 27.1114C116.007 27.0322 115.725 26.8955 115.539 26.7294M119.657 25.978L128 25.5M119.657 25.978C118.341 25.978 117.246 29.1105 116.38 29.0066C115.484 28.899 114.675 28.6622 114.024 28.0815M128 25.5C129.316 25.5 130.634 29.1105 131.5 29.0066C132.396 28.899 133.206 28.6622 133.856 28.0815M115.539 26.7294L114.024 28.0815M115.539 26.7294C115.353 26.5633 115.2 26.3115 115.111 25.7232C115.018 25.1074 115.016 24.2818 115.016 23.0528M114.024 28.0815C113.374 27.501 113.109 26.7784 112.988 25.978C112.872 25.2052 112.874 24.2277 112.874 23.0528M112.874 23.0528H115.016M132.864 23.0528C132.864 24.2818 132.862 25.1074 132.769 25.7232C132.681 26.3115 132.528 26.5633 132.342 26.7294M132.342 26.7294L133.856 28.0815M123.94 1.69879C120.641 1.69879 117.842 3.60102 116.84 6.2413M123.94 1.69879V3.61109M123.94 1.69879C127.239 1.69879 130.038 3.60102 131.041 6.2413M116.84 6.2413L118.868 6.85545M116.84 6.2413C116.583 6.91748 116.444 7.64118 116.444 8.39184M118.868 6.85545C119.585 4.96758 121.587 3.61109 123.94 3.61109M118.868 6.85545C118.685 7.33641 118.586 7.85277 118.586 8.39184M123.94 3.61109C126.294 3.61109 128.295 4.96758 129.013 6.85545M116.444 8.39184H118.586M129.013 6.85545L131.041 6.2413M129.013 6.85545C129.195 7.33641 129.295 7.85277 129.295 8.39184M131.041 6.2413C131.298 6.91748 131.436 7.64118 131.436 8.39184M129.295 8.39184H131.436" stroke="#FF9103" stroke-width="1.64458"/>
</svg>
